<?xml version="1.0" encoding="UTF-8"?><svg id="_レイヤー_2" xmlns="http://www.w3.org/2000/svg" width="50.51" height="51.37" viewBox="0 0 50.51 51.37"><defs><style>.cls-1{fill:#fff;}</style></defs><g id="_10"><path class="cls-1" d="m35.99,0H14.52C6.5,0,0,6.5,0,14.52v22.34c0,8.02,6.5,14.52,14.52,14.52h21.48c8.02,0,14.52-6.5,14.52-14.52V14.52c0-8.02-6.5-14.52-14.52-14.52ZM5.15,14.52c0-5.16,4.2-9.36,9.36-9.36h21.48c5.16,0,9.36,4.2,9.36,9.36v22.34c0,5.16-4.2,9.36-9.36,9.36H14.52c-5.16,0-9.36-4.2-9.36-9.36V14.52Z"/><path class="cls-1" d="m25.26,38.91c7.29,0,13.23-5.93,13.23-13.23s-5.93-13.23-13.23-13.23-13.23,5.93-13.23,13.23,5.93,13.23,13.23,13.23Zm0-22.34c5.02,0,9.11,4.08,9.11,9.11s-4.08,9.11-9.11,9.11-9.11-4.08-9.11-9.11,4.08-9.11,9.11-9.11Z"/><circle class="cls-1" cx="38.87" cy="12.07" r="2.96"/></g></svg>