<?xml version="1.0" encoding="UTF-8"?><svg id="_レイヤー_2" xmlns="http://www.w3.org/2000/svg" width="181.31" height="50.62" viewBox="0 0 181.31 50.62"><g id="_レイヤー_1-2"><path d="m0,0h29.83v1.27H1.41v22.69h26.65v1.27H1.41v24.53H0V0Z"/><path d="m38.03,26.65c0-7.71,0-9.83-.07-12.02h1.34c.14,1.77.14,5.8.14,10.18,1.77-6.15,7.63-10.82,13.29-11.03v1.42c-7.21.28-13.29,7.49-13.29,15.62v18.95h-1.41v-23.12Z"/><path d="m82.84,41.85c0,4.45.21,7,.35,7.92h-1.41c-.14-1.13-.35-3.39-.35-7.85-1.91,5.94-6.36,8.7-12.79,8.7-8.48,0-11.81-5.02-11.81-10.04,0-7.56,5.87-10.67,15.69-10.67,4.03,0,6.36,0,8.91.07v-4.95c0-5.09-2.12-9.97-10.46-9.97-7.78,0-10.46,3.89-10.96,9.26h-1.41c.28-5.09,3.11-10.53,12.44-10.53,8.41,0,11.81,4.67,11.81,10.82v17.25Zm-1.41-10.6c-2.4-.07-5.3-.07-8.98-.07-9.54,0-14.14,3.04-14.14,9.33,0,5.44,4.31,8.77,10.39,8.77,8.2,0,12.72-5.02,12.72-14.63v-3.39Z"/><path d="m94.86,22.62c0-2.9,0-6.36-.07-7.99h1.41c.07,1.2.14,5.44.07,8.27,1.2-3.96,4.45-9.12,12.16-9.12,5.94,0,9.47,3.39,10.67,8.34,1.06-2.97,4.17-8.34,12.16-8.34,6.29,0,11.52,3.82,11.52,13.01v22.97h-1.48v-22.83c0-6.29-2.97-11.81-10.18-11.81s-11.59,5.44-11.59,12.87v21.77h-1.48v-23.05c0-6.72-3.11-11.59-9.83-11.59s-11.95,5.66-11.95,15.2v19.44h-1.41v-27.15Z"/><path d="m153.74,31.81c0,10.96,5.44,17.39,13.08,17.39,6.93,0,10.25-3.75,12.3-8.34h1.41c-2.12,5.51-6.15,9.61-13.64,9.61-10.81,0-14.56-9.68-14.56-18.38,0-11.24,6.08-18.31,14.7-18.31,10.89,0,14.28,9.54,14.28,16.26,0,.78,0,.99-.07,1.77h-27.5Zm26.23-1.27c0-8.48-4.24-15.48-13.01-15.48-7.78,0-12.72,6.43-13.15,15.48h26.15Z"/></g></svg>