<?xml version="1.0" encoding="UTF-8"?><svg id="_レイヤー_2" xmlns="http://www.w3.org/2000/svg" width="53.3121" height="43.3067" viewBox="0 0 66.18 53.76"><defs><style>.cls-1{fill:#fff;}</style></defs><g id="_2"><path class="cls-1" d="m66.07,6.47s.05-.07.08-.11c-1.94.86-4,1.49-6.14,1.88-.51.08-1.03.14-1.55.18,2.19-1.34,3.94-3.29,5.09-5.6.3-.58.59-1.16.81-1.77-.03.02-.05.03-.08.04.01-.04.03-.07.04-.1-2.62,1.55-5.53,2.68-8.62,3.29-2.48-2.64-6-4.29-9.91-4.29-7.5,0-13.57,6.08-13.57,13.57,0,.98.11,1.92.31,2.84.01.08.02.16.03.25-9.92-.5-18.85-4.75-25.41-11.35-.87-.89-1.71-1.81-2.5-2.79,0,0,0,.01-.01.02-.02-.02-.03-.04-.05-.06-1.17,2-1.84,4.34-1.84,6.82,0,3.89,1.65,7.38,4.27,9.85.52.51,1.07,1,1.67,1.43-2.19-.09-4.25-.69-6.05-1.69,0,.06,0,.11,0,.17,0,5.47,3.26,10.14,7.92,12.29.9.43,1.84.8,2.85,1.04-1.1.29-2.26.45-3.46.45-.77,0-1.52-.09-2.26-.22-.08-.02-.16-.03-.23-.05,0,.01,0,.02.01.03-.03,0-.05,0-.08,0,1.51,4.72,5.54,8.31,10.51,9.21.69.14,1.4.22,2.11.26-4.64,3.61-10.46,5.77-16.8,5.77-.88,0-1.74-.07-2.6-.15-.2-.04-.4-.05-.6-.1.04.02.08.04.11.07-.05,0-.1,0-.15,0,6.01,3.85,13.14,6.1,20.8,6.1,13.79,0,24.11-6.33,30.6-15,.02-.03.05-.06.07-.08.62-.83,1.19-1.69,1.74-2.57.11-.18.24-.35.35-.53.51-.83.96-1.69,1.4-2.55.11-.21.24-.42.34-.64.51-1.05.98-2.12,1.4-3.2,0-.01.01-.03.02-.04,1.77-4.59,2.7-9.39,2.7-14.01,0-.59-.01-1.17-.04-1.76,2.11-1.52,3.98-3.36,5.58-5.41.42-.51.83-1.02,1.22-1.55-.03.02-.07.03-.11.04Z"/></g></svg>