<?xml version="1.0" encoding="UTF-8"?><svg id="_レイヤー_2" xmlns="http://www.w3.org/2000/svg" width="70" height="70" viewBox="0 0 70 70"><defs><style>.cls-1{fill:#fff;}.cls-2{fill:#2e6c35;}</style></defs><g id="_レイヤー_1-2"><circle class="cls-2" cx="35" cy="35" r="35"/><path class="cls-1" d="m35,23.06l-9.75-9.43c-1.15-1.11-2.85-1.43-4.32-.8-1.47.62-2.43,2.07-2.43,3.67v24.08c0,1.62.66,3.17,1.82,4.29l11.91,11.52c1.54,1.49,3.99,1.49,5.53,0l11.91-11.52c1.16-1.13,1.82-2.67,1.82-4.29v-24.08c0-1.6-.96-3.04-2.43-3.67-1.47-.62-3.17-.31-4.32.8l-9.75,9.43Zm10.88,16.81c0,.54-.22,1.06-.61,1.43l-10.28,9.94v-20.37l1.95-1.89,7.24-7.01c.29-.28.71-.36,1.08-.2.37.16.61.52.61.92v17.18Z"/></g></svg>