<?xml version="1.0" encoding="UTF-8"?><svg id="_レイヤー_2" xmlns="http://www.w3.org/2000/svg" width="70" height="70" viewBox="0 0 70 70"><defs><style>.cls-1{fill:#fff;}.cls-2{fill:#2e6c35;}</style></defs><g id="_レイヤー_1-2"><circle class="cls-2" cx="35" cy="35" r="35"/><path class="cls-1" d="m52.64,41.67l-1.49-1.86v-10.2c0-3.75-3.05-6.8-6.8-6.8h-4.02c.53-.65.84-1.48.81-2.39-.05-1.87-1.55-3.41-3.42-3.51-1.06-.06-2.04.35-2.73,1.04-.65-.64-1.54-1.05-2.53-1.05-1.99,0-3.61,1.62-3.61,3.61,0,.87.31,1.66.82,2.29h-4.03c-3.75,0-6.8,3.05-6.8,6.8v10.2l-1.49,1.86c-.79.99-1.05,2.3-.71,3.51l1.42,5.04c.47,1.69,2.02,2.86,3.77,2.86h26.33c1.76,0,3.3-1.17,3.77-2.86l1.42-5.04c.34-1.22.08-2.53-.71-3.51Zm-17.26-21.53s.01-.07.02-.11c.03-.12.06-.23.11-.34.01-.03.03-.06.04-.09.11-.24.26-.46.44-.64.41-.4.96-.65,1.58-.65s1.17.25,1.58.65c.4.41.65.96.65,1.58s-.25,1.17-.65,1.57c-.41.4-.96.65-1.58.65-.62,0-1.17-.25-1.58-.65-.18-.18-.33-.4-.44-.64-.01-.03-.03-.06-.04-.09-.05-.11-.08-.23-.11-.35,0-.03-.01-.07-.02-.1-.02-.13-.04-.26-.04-.4s.02-.27.04-.39Zm-4.46-1.18c.41-.4.96-.65,1.58-.65.7,0,1.33.33,1.74.84-.05.13-.1.27-.14.41-.01.03-.02.06-.02.1-.03.11-.05.22-.07.33,0,.04-.01.08-.02.12-.02.14-.03.29-.03.44s.01.29.03.44c0,.04.01.08.02.12.02.11.04.22.07.33,0,.03.01.07.02.1.04.14.08.28.14.41-.41.51-1.03.84-1.74.84-.62,0-1.17-.25-1.58-.65-.41-.4-.65-.96-.65-1.57,0-.62.25-1.17.65-1.58Zm18.85,19.31l-1.16-1.47c-.56-.71-.86-1.58-.86-2.49v-3.98c0-2.2-1.76-3.98-3.93-3.98h-17.58c-2.17,0-3.93,1.78-3.93,3.98v3.98c0,.9-.3,1.78-.86,2.49l-1.16,1.47v-8.59c0-1.52.61-2.89,1.59-3.89.99-1,2.34-1.61,3.84-1.61h18.63c1.5,0,2.85.62,3.84,1.61.99,1,1.59,2.37,1.59,3.89v8.59h0Z"/></g></svg>