<?xml version="1.0" encoding="UTF-8"?><svg id="_レイヤー_2" xmlns="http://www.w3.org/2000/svg" width="70" height="70" viewBox="0 0 70 70"><defs><style>.cls-1{fill:#fff;}.cls-2{fill:#2e6c35;}</style></defs><g id="_レイヤー_1-2"><circle class="cls-2" cx="35" cy="35" r="35"/><path class="cls-1" d="m55.03,42.45c-.63-2.18-1.25-4.36-1.88-6.54-.2-.71-.41-1.42-.61-2.13l-1.7,1.7c.55,2.17,1.1,4.34,1.65,6.51.27,1.07-.44,2.02-1.61,1.65-1.92-.8-4.03-1.36-6.11-1.47-2.36-.12-4.78.36-6.96,1.27-.25.1-1.89,1.28-1.95.44-.04-1.96-.07-3.92-.11-5.88-.08-4.05-.15-8.1-.23-12.15,0-.23.56-.35.67-.39.92-.35,1.88-.59,2.84-.74,2.36-.38,4.67-.19,6.98.4.73.19,1.5.41,2.04.89l1.09-1.09c-.36-.27-.75-.5-1.18-.69-1.95-.87-4.43-1.22-6.55-1.27-2.26-.05-4.58.3-6.72,1.04-.42.14-1.1-.24-1.53-.35-.5-.14-1.01-.25-1.52-.35-1.13-.21-2.27-.32-3.42-.34-2.19-.03-4.43.39-6.53,1.02-.46.17-.13.05-.03.01-1.31.49-2.74,1.3-3.15,2.74-.1.36-.21.72-.31,1.08-.52,1.81-1.04,3.63-1.57,5.44-.71,2.48-1.43,4.96-2.14,7.44-.41,1.44-1.24,3.3-.93,4.81.38,1.88,2.21,2.74,3.99,2.38.62-.13,1.2-.42,1.79-.63,1-.36,2.01-.66,3.05-.87,2.5-.52,5.03-.24,7.49.39.55.14,2.6.5,2.66,1.11.06.57.71.42,1.13.42h1.23c.38,0,1.01.13,1.36-.03.36-.16.08-.55.42-.69.46-.2.94-.36,1.41-.51,1.12-.35,2.27-.61,3.43-.78,2.48-.36,4.82-.1,7.2.65,1.39.44,2.75,1.25,4.26.98,2.06-.37,2.9-2.47,2.36-4.35-.1-.37-.21-.74-.32-1.11Zm-21.63-11.8c-.08,4.35-.16,8.71-.24,13.06,0,.29-.09.47-.41.46-1.76-1.05-3.86-1.65-5.88-1.91-2.38-.3-4.71.02-6.99.73-.71.22-1.5.7-2.25.7-.86,0-1.36-.76-1.16-1.56.52-2.06,1.05-4.12,1.57-6.19.62-2.42,1.23-4.85,1.85-7.27.15-.6.31-1.21.46-1.81.37-1.48,2.47-1.76,3.71-2.02,2.33-.48,4.69-.48,7.01.07.4.09,2.42.41,2.41.98-.03,1.58-.06,3.17-.09,4.75Z"/><path class="cls-1" d="m40.27,39.89l6.11-1.3,12.12-12.11-4.82-4.82-12.11,12.11-1.3,6.11Zm15.9-13.41l-10.39,10.39-1.07-1.07,10.39-10.39,1.07,1.07Zm-2.49-2.49l1.07,1.07-10.39,10.39-1.07-1.07,10.39-10.39Zm-10.63,10.84l2.28,2.29-2.13.47-.63-.62.47-2.13Z"/></g></svg>