<?xml version="1.0" encoding="UTF-8"?><svg id="_レイヤー_2" xmlns="http://www.w3.org/2000/svg" width="4787.3" height="3145.74" viewBox="0 0 4787.3 3145.74"><defs><style>.cls-1{fill:#006400;}.cls-2{fill:#fff;}.cls-3{fill:#38261f;}</style></defs><g id="_layer"><g id="group"><path class="cls-2" d="m3195.48,2212.84l94.05-44.64,8.45,227.47-14.79,100.55-6.7,60.67-38.56,17.17-62.06,140.7s-2.59-474.49-3.89-475.35c-1.3-.87,23.49-26.57,23.49-26.57Z"/><path class="cls-2" d="m3985.33,1371.13c29,11.7,48.69,45.16,44.88,76.18-3.58,28.98-27.6,55.05-56.01,61.84.92-6.61,1.72-13.26,2.43-19.94,1.4-13.24-8.19-25.1-21.43-26.5-13.22-1.42-25.08,8.17-26.5,21.41-1.42,13.4-3.26,26.71-5.48,39.56-14.92,86.44-56.77,174.6-114.85,241.9-23.36,27.05-48.75,62.54-86.68,89.58-20.26,14.45-32.57,32.1-32.58,58.36-2.02,17.74-2.48,38.99-1.35,63.65.69,15.12,5.12,91.99,24.42,119.32,41.26,58.47,98.65,88.85,165.35,117.58l-44.54,41.63c-9.36-6.4-22.24-5.46-30.57,2.82l-243.24,286.21-94.75-33.58-7.18-259.15,71.72-5.66-4.22,83.89,58.08,11.29,17.26-230.39-14.09-92.37c-5.76-23.94-75.4-9.98-146.01-1.77l29.75-63.07c74.04-25.12,82.26-22.17,155.8-51.05,24.53-34.74-5.12-57.47-33.55-63.41-6.96-1.45-189.77,48.46-198.42,43.14-.18-.11-20.77-13.46-44.39-28.6-54.61-31.69-53.95-80.71-92.89-141.77-36.1-56.63-61.93-122.42-72.76-185.2-2.41-13.91-4.36-28.32-5.83-42.82-1.35-13.24-13.17-22.88-26.41-21.55-13.24,1.33-22.88,13.15-21.55,26.39.6,5.78,1.24,11.54,1.97,17.28-24.39-9.55-43.92-33.11-47.11-59.02-3.83-31.02,15.88-64.48,44.91-76.18l42.18-43.4c8.54,24.32,19.67,53.37,40.41,68.65-1.95,6.08-12.67,36.98-14.33,43.52-3.24,12.9,4.59,26,17.51,29.23,1.95.5,3.92.73,5.87.73,10.78,0,20.61-7.3,23.36-18.22,4.27-17.05,9.66-31.85,16.32-44.75,3.49-6.77,7.32-13.01,11.52-18.79,22.1-30.31,58.15-53.4,113.45-72.63,14.96-5.21,30.63-9.98,45.78-14.62,33.14-10.12,67.42-20.61,99.8-36.85,106.36-53.42,178.89-169.26,180.52-288.26.02-2.41-.3-4.75-.92-6.98,2.41-.8-13.27-19.23-12.1-19.44,12.66-4.38,32.87-7.55,49.67-1.95.92,7.71,2.77,36.48,10.25,40.27,25.52,12.96,45.23,37.17,52.71,64.8,5.42,19.99,5,41.95,4.57,65.21-.07,3.28-.14,6.56-.18,9.82-.41,30.31,1.08,62.32,14.78,91.12,14.27,29.99,46.51,59.04,86.42,56.91l12.57.21c4.64,17.21,9.11,44.26,9.64,61.22.28,9.55,6.17,18.01,15.03,21.62l31,12.55Z"/><path class="cls-1" d="m4031.2,1288.64c-3.79,15.03-9.61,29.33-17.39,42.7-3.37-1.81-6.86-3.44-10.42-4.89l-17.12-6.93c-2.52-24.42-8.93-60.33-18.06-78.43-4.02-7.99-12.16-13.08-21.11-13.24l-30.13-.5c-.69-.02-1.35,0-2.04.05-16.98,1.15-33.36-13.95-40.73-29.46-9.94-20.88-10.44-46.95-10.12-69.74.05-3.19.11-6.4.16-9.59.5-25.61,1.01-52.11-6.22-78.73-10.99-40.57-39.93-76.16-77.42-95.18-10.46-5.3-22.97-2.25-29.9,6.68-12-3.42-24.78-4.22-37.04-2.13-5.55.94-10.53,2.57-14.85,4.77-3.21-1.65-6.84-2.62-10.69-2.66-13.31-.23-24.23,10.44-24.42,23.75-1.38,101.49-63.26,200.3-153.97,245.85-4.02,2.02-8.1,3.97-12.21,5.78,22.3-39.51,30.89-84.83,30.89-148.63,0-13.31-10.78-24.09-24.09-24.09s-24.09,10.78-24.09,24.09c0,88.23-15.6,129.08-69.05,178.62-13.58,4.15-27.51,8.49-41.21,13.26-15.7,5.46-30.13,11.24-43.39,17.49,18.75-31.96,33.73-68.73,33.73-134.38,0-13.31-10.78-24.09-24.09-24.09s-24.09,10.78-24.09,24.09c0,68.34-18.1,96.58-41.03,132.33-7.5,11.73-15.26,23.84-22.92,38.07-6.45,11.98-12.28,23.93-17.92,35.5-5.69,11.66-11.06,22.65-17.05,33.78-1.38,2.57-2.25,5.28-2.64,8.03-.28.69-.57,1.4-.83,2.09-17.53-14.36-30.59-34.21-36.67-56.06,1.49-3.01,2.36-6.36,2.46-9.87.6-19.85,1.45-33.57,2.55-50.94l.32-5.03c.83-13.29-9.27-24.74-22.53-25.56-13.26-.85-24.74,9.27-25.56,22.53l-.32,5.03c-.8,12.92-1.49,23.86-2.04,36.78l-16.48,6.68c-8.74,3.53-16.96,8.17-24.51,13.7-5.12-9.36-9.29-19.16-12.51-29.3,6.2-5.48,9.41-14.02,7.69-22.74-37.95-192.48,17.44-406.39,141.12-544.96,6.82-7.62,7.89-18.38,3.53-26.96,9.64-10.83,20.22-20.72,31.64-29.58,8.61,7.53,21.64,8.03,30.89.64,104.11-83.18,240.73-116.04,365.5-87.86,125.27,28.27,240.76,118.43,308.95,241.17,68.68,123.57,90.39,281.79,58.08,423.21-2.23,9.71,1.77,19.39,9.36,24.87Z"/><path class="cls-2" d="m3903.27,2224.98v436.86s.88,259.49,1.71,454.06h-571.62s51.18-267.03,54.63-268.47c.41.76,23.24-232.39,23.91-231.77l32.29-78.66c-3.58,8.74,8.52-51.12,19.37-75.69,0,0,87.18,99.78,93.33,99.78s12.3-2.34,17-7.02l262.53-261.36c5.83-5.81-2.59-34.91-3.95-42.42l40.65-37.43c.3-.3,22.54,9.38,22.79,9.06,2.43,1.01,4.86,2.04,7.34,3.07Z"/><path class="cls-1" d="m3225.22,1903.41c19.62,69.21,4.86,147.87-38.46,205.28-7.21,9.55-6.22,22.74,1.79,31.12-11.66,25.1-29.03,47.32-50.55,64.66-19,8.21-38.64,17.05-58.88,26.96-50.99,16.43-97.5,7.6-143.94-27.42,4.91-11.04.87-24.23-9.78-30.52-16.66-9.82-29.05-27.7-34.03-49.01-4.96-21.32-1.74-42.82,8.83-59.02,7.53-11.5,18.56-21.75,30.27-32.61,17.85-16.61,38.11-35.41,48-62.28,11.2-30.43,5.67-61.41.78-88.76-2.09-11.79-4.08-22.92-4.8-33.62-4.22-62.71,44.2-126.55,105.72-139.4,10.6-2.2,18.1-11.11,19.05-21.36,27.79-6.95,56.68-8.61,85.06-4.91,8.15,16.59,17.1,32.75,26.73,48.33.09.5.23,1.01.41,1.49,17.05,45.32,26.09,94.27,26.5,142.82-10.37,4.96-15.95,16.8-12.71,28.25Z"/><path class="cls-2" d="m2807.7,3115.9h540.02c5.27-16.74,40.27-268.47,63.28-493.14-36.8-29.56-144.13-48.67-158.39-49.54-15.79,18.62-40.84,94.11-64.57,141.55-2.05-224.11-5.34-383.32-5.63-496.06-60.39,18.06-143.79,47.74-191.66,86-27.09,21.65-55.53,47.04-77.42,76.05-115.14,316.88-105.62,735.14-105.62,735.14Z"/><path class="cls-2" d="m4338.13,3115.9h-405.32s7.13-715.61,6.88-897.2c60.39,18.06,143.79,47.74,191.66,86,27.09,21.65,55.53,47.04,77.42,76.05,80.11,106.19,92.22,259.42,106.84,395.23,19.82,184.05,24.3,340,22.51,339.92Z"/><polygon class="cls-2" points="3262.13 2563.9 3285.67 2477.16 3295.59 2370.59 3288.15 2115.33 3315.41 2011.24 3367.46 1899.72 3570.68 1835.28 3623.96 1845.19 3632.63 1888.56 3559.52 1926.98 3469.73 1953.93 3452.96 2018.67 3565.72 2002.57 3590.5 2036.02 3589.26 2076.91 3604.13 2125.24 3610.33 2204.55 3581.83 2330.94 3539.7 2340.85 3522.35 2319.79 3521.11 2245.44 3457.25 2252.01 3466.59 2432.55 3450.48 2527.97 3415.78 2603.55 3262.13 2563.9"/><path class="cls-3" d="m4038.21,3144.76c-15.53,0-28.63-12.03-29.73-27.76-8.68-124.86-7.07-246.5,4.8-361.56,1.69-16.39,16.33-28.29,32.73-26.61,16.39,1.69,28.3,16.35,26.61,32.73-11.52,111.66-13.07,229.85-4.63,351.3,1.14,16.44-11.25,30.69-27.69,31.83-.7.05-1.41.07-2.1.07Z"/><path class="cls-3" d="m3493.6,1767.62c-8.64,0-17.2-3.73-23.1-10.94-10.43-12.75-8.56-31.54,4.19-41.98,46.18-37.79,116.65-38.84,163.92-2.44,13.05,10.05,15.49,28.78,5.43,41.84-10.05,13.05-28.78,15.49-41.84,5.43-25.03-19.27-65.28-18.68-89.73,1.34-5.54,4.54-12.23,6.75-18.88,6.75Z"/><path class="cls-3" d="m2994.63,2334.94c-9.71,0-19.24-4.74-24.96-13.46-9.04-13.77-5.21-32.27,8.57-41.31,44.19-29.01,180.14-94.14,220.75-113.4,14.89-7.06,32.68-.72,39.74,14.16,7.06,14.88.72,32.68-14.16,39.74-81.89,38.85-181.01,87.99-213.58,109.38-5.05,3.31-10.73,4.9-16.34,4.9Z"/><path class="cls-3" d="m4122.29,2334.94c-5.62,0-11.3-1.58-16.34-4.9-68.88-45.22-134.27-72.37-191.97-96.33-84-34.88-156.55-65-206.53-135.84-17.8-25.22-23.39-89.86-24.96-116.47-2.03-34.16-2.87-95.96,14.24-126.05,8.14-14.32,26.35-19.33,40.68-11.19,14.32,8.14,19.33,26.35,11.19,40.68-4.27,7.51-9.58,37.82-6.69,90.52,2.71,49.46,10.71,81.79,14.46,88.34,40.05,56.6,102.04,82.34,180.51,114.92,60.12,24.96,128.27,53.26,201.83,101.55,13.77,9.04,17.61,27.54,8.57,41.31-5.73,8.73-15.25,13.46-24.96,13.46Zm-365.88-271.13h0,0Z"/><path class="cls-3" d="m2810.94,3144.76c-15.68,0-28.83-12.24-29.75-28.1-7.79-133.88-1.94-258.4,17.9-380.67,19.74-121.63,53.46-241.87,103.09-367.61,6.05-15.32,23.38-22.85,38.7-16.79,15.33,6.05,22.84,23.38,16.79,38.7-48.04,121.7-80.65,237.91-99.69,355.26-19.13,117.91-24.77,238.17-17.23,367.64.96,16.45-11.6,30.56-28.05,31.51-.59.03-1.18.05-1.76.05Z"/><path class="cls-3" d="m4328.1,3144.76c-.58,0-1.17-.02-1.76-.05-16.45-.96-29-15.07-28.05-31.51,7.54-129.48,1.9-249.73-17.23-367.64-19.04-117.35-51.65-233.56-99.69-355.26-6.05-15.32,1.47-32.65,16.79-38.7,15.32-6.05,32.65,1.47,38.7,16.79,49.63,125.73,83.35,245.98,103.09,367.61,19.84,122.27,25.69,246.78,17.9,380.67-.92,15.86-14.07,28.1-29.75,28.1Z"/><path class="cls-3" d="m3025.84,3145.74c-3.91,0-7.88-.77-11.71-2.41-15.15-6.47-22.18-24-15.71-39.15,8.93-20.91,17.93-41.79,27.45-63.9,68.28-158.52,145.68-338.19,181.8-490.28,1.91-8.04,7.08-14.94,14.26-19.03,7.19-4.09,15.75-5.02,23.64-2.56l175.21,54.62c12.71,3.96,21.26,15.87,20.94,29.18-2,84.67-24.38,255.78-66.5,508.58-2.71,16.25-18.08,27.24-34.33,24.52-16.25-2.71-27.23-18.08-24.52-34.33,37.61-225.73,59.84-389.79,64.78-477.82l-123.23-38.42c-39.7,149.78-112.52,318.82-177.26,469.12-9.51,22.07-18.49,42.92-27.38,63.74-4.84,11.33-15.86,18.12-27.45,18.12Z"/><path class="cls-3" d="m3580.08,2177.63c-12.6,0-24.32-8.05-28.39-20.69-5.05-15.68,3.57-32.49,19.25-37.54.61-.2,1.19-.47,1.72-.81,2-1.27,4.12-4.09,3.49-7.82-.44-2.6-1.95-4.16-3.14-5.01-1.19-.85-3.16-1.77-5.76-1.33-.07.01-.14.02-.21.04l-109.59,17.62c-16.27,2.62-31.57-8.45-34.19-24.72-2.62-16.27,8.45-31.57,24.72-34.19l109.49-17.61c17.71-2.95,35.51,1.16,50.15,11.58,14.67,10.44,24.39,25.96,27.38,43.71,4.5,26.75-7.38,53.46-30.28,68.04-4.83,3.07-10.04,5.52-15.48,7.27-3.04.98-6.12,1.45-9.15,1.45Z"/><path class="cls-3" d="m3282.23,2532.84c-1.45,0-2.91-.11-4.38-.32-16.3-2.4-27.57-17.55-25.17-33.85l18.49-125.72c-1-21.28-7.24-153.75-7.96-169.17-2.32-16.2-13.71-105.73,10.05-154.78l66.23-158.29c3.43-8.2,10.34-14.44,18.84-17.03l217.11-66.06c34.41-12.5,72.76,4.9,85.92,39.22,13.3,34.7-4.11,73.75-38.8,87.05-.56.21-1.12.41-1.69.59l-127.95,40.44-20.05,43.43c-6.91,14.96-24.63,21.49-39.59,14.58-14.96-6.91-21.49-24.63-14.58-39.59l25.57-55.39c3.52-7.62,10.09-13.41,18.09-15.94l139.35-44.05c3.63-1.7,5.39-5.96,3.94-9.76-1.53-3.98-6-5.97-9.98-4.45-.66.25-1.32.48-1.99.68l-204.55,62.24-61.16,146.18c-.26.62-.54,1.22-.84,1.82-13.33,26.68-8.91,93.58-4.67,121.8.15,1,.25,2.01.3,3.02q8.17,173.6,8.18,173.73c.07,1.85-.02,3.7-.29,5.53l-18.91,128.57c-2.18,14.83-14.92,25.49-29.48,25.49Z"/><path class="cls-3" d="m3580.3,2096.89c-7.88,0-15.74-3.1-21.61-9.26-11.36-11.93-10.9-30.81,1.03-42.17.9-.86,2.94-3.25,2.32-6.9-.44-2.6-1.95-4.16-3.14-5.01-1.19-.85-3.17-1.77-5.76-1.33-.12.02-.24.04-.36.06l-156.13,24.34c-16.27,2.53-31.53-8.6-34.07-24.88-2.54-16.28,8.6-31.53,24.88-34.07l155.99-24.32c17.67-2.92,35.44,1.2,50.05,11.6,14.67,10.44,24.39,25.96,27.38,43.71,3.72,22.1-3.76,44.53-20.01,60.01-5.77,5.5-13.18,8.23-20.57,8.23Z"/><path class="cls-3" d="m3443.28,2569.83c-2.96,0-5.97-.44-8.95-1.38-15.72-4.94-24.45-21.68-19.52-37.4,5.54-17.65,19.98-69.36,20.29-96.26.33-29-11.74-138.38-16.42-178.08-1.9-16.16,9.49-30.87,25.62-33.05l84.67-11.48c9.29-1.26,18.64,1.93,25.24,8.6,6.59,6.68,9.66,16.06,8.28,25.34l-9.48,63.77c.7.55,1.56,1.04,2.64,1.35,2.54.74,4.59.05,5.88-.65,1.08-.6,2.45-1.67,3.3-3.51l20.11-124.79c-1.62-2.51-4.63-3.95-7.77-3.43-.25.04-.49.08-.74.12l-126.1,17.98c-16.31,2.32-31.42-9.01-33.74-25.32-2.33-16.31,9.01-31.42,25.32-33.74l125.78-17.94c17.6-2.85,35.29,1.27,49.84,11.63,14.67,10.44,24.39,25.96,27.38,43.71.54,3.21.55,6.49.03,9.7l-21.61,134.07c-.19,1.21-.46,2.4-.8,3.58-5.02,17.28-16.48,31.57-32.26,40.24-15.78,8.67-33.98,10.68-51.26,5.66-21.52-6.25-38.47-22.74-45.35-44.1-1.41-4.36-1.79-8.99-1.11-13.53l5.1-34.27-16.36,2.22c5.07,45.24,13.81,127.85,13.49,156.61-.46,40.52-20.72,106.12-23.03,113.47-4,12.74-15.77,20.89-28.45,20.9Z"/><path class="cls-3" d="m3574.69,1549.17h-34.89c-16.47,0-29.83-13.36-29.83-29.83s13.36-29.83,29.83-29.83h34.89c16.47,0,29.83,13.36,29.83,29.83s-13.36,29.83-29.83,29.83Z"/><path class="cls-3" d="m3571.46,1551.48h-34.89c-16.47,0-29.83-13.36-29.83-29.83s13.36-29.83,29.83-29.83h34.89c16.47,0,29.83,13.36,29.83,29.83s-13.36,29.83-29.83,29.83Z"/><path class="cls-3" d="m3843.51,1323.55c-4.52,0-9.11-1.03-13.42-3.21-17.96-9.06-38.08-13.58-58.19-13.05-16.5.44-30.17-12.57-30.6-29.04-.43-16.47,12.57-30.17,29.04-30.6,29.92-.78,59.89,5.94,86.62,19.43,14.71,7.42,20.61,25.36,13.19,40.07-5.25,10.4-15.75,16.4-26.65,16.4Z"/><circle class="cls-3" cx="3325.87" cy="1422.96" r="38.19"/><circle class="cls-3" cx="3785.97" cy="1422.96" r="38.19"/><path class="cls-3" d="m3058.46,1322.62c-13.96,0-26.43-9.85-29.23-24.06-20.24-102.58-16.56-212.21,10.64-317.02,27.26-105.07,76.77-199.92,143.16-274.31,10.97-12.29,29.83-13.36,42.12-2.39,12.29,10.97,13.36,29.83,2.39,42.12-122.55,137.29-177.41,349.27-139.78,540.04,3.19,16.16-7.33,31.85-23.49,35.04-1.95.38-3.89.57-5.81.57Z"/><path class="cls-3" d="m4045.35,1298.98c-2.2,0-4.43-.24-6.67-.76-16.06-3.67-26.11-19.66-22.44-35.72,15.78-69.07,18.85-143.9,8.89-216.39-9.95-72.4-32.91-142.52-66.39-202.77-33.33-59.98-78.92-113.48-131.85-154.72-52.62-41-112.57-69.92-173.35-83.64-60.61-13.68-125.52-13.03-187.72,1.9-62.39,14.97-122.18,44.31-172.92,84.87-12.87,10.29-31.64,8.19-41.93-4.68-10.29-12.87-8.19-31.64,4.68-41.93,57.54-45.99,125.41-79.28,196.26-96.28,71.04-17.04,145.3-17.76,214.77-2.08,69.29,15.64,137.37,48.41,196.88,94.77,59.2,46.12,110.15,105.87,147.34,172.8,37.04,66.65,62.4,143.98,73.34,223.63,10.93,79.55,7.53,161.78-9.83,237.8-3.16,13.83-15.45,23.19-29.06,23.19Z"/><path class="cls-3" d="m3143.38,1564.02c-1.37,0-2.75-.09-4.14-.29-26.7-3.7-52.34-16.85-72.22-37.03-19.88-20.18-32.64-46.02-35.94-72.77-3.3-26.75,2.79-54.92,17.17-79.32,14.37-24.4,36.05-43.4,61.05-53.48l13.05-5.29c.53-11.42,1.16-21.53,1.9-33.25l.31-4.97c1.03-16.44,15.2-28.95,31.64-27.9,16.44,1.03,28.94,15.2,27.9,31.64l-.31,4.99c-1.13,18.01-1.96,31.02-2.55,50.79-.35,11.82-7.65,22.32-18.62,26.76l-30.97,12.55c-26.74,10.79-44.89,41.61-41.37,70.18,3.53,28.57,28.63,54.05,57.15,58.01,16.32,2.26,27.71,17.33,25.45,33.65-2.07,14.93-14.86,25.73-29.51,25.73Z"/><path class="cls-3" d="m3701.46,1911.18c-10.89,0-21.38-5.98-26.64-16.37-7.44-14.7-1.55-32.65,13.15-40.09,57.86-29.28,110.5-77.91,152.22-140.63,38.61-58.03,66.08-126,77.37-191.4,2.2-12.74,4.03-25.92,5.44-39.18,1.74-16.38,16.44-28.24,32.82-26.51,16.38,1.74,28.25,16.43,26.51,32.82-1.55,14.54-3.55,29.02-5.97,43.02-12.67,73.4-43.38,149.51-86.49,214.3-47.42,71.28-107.92,126.88-174.95,160.81-4.32,2.19-8.92,3.22-13.45,3.22Z"/><path class="cls-3" d="m3336.19,1869.31c-6.63,0-13.31-2.2-18.85-6.72-47.89-39.09-90.61-90.92-123.55-149.89-31.2-55.84-53.12-116.87-63.41-176.5-2.61-15.13-4.74-30.8-6.34-46.55-1.66-16.39,10.28-31.02,26.67-32.68,16.39-1.66,31.03,10.28,32.68,26.67,1.46,14.38,3.4,28.65,5.77,42.42,9.16,53.05,28.76,107.53,56.71,157.55,29.31,52.47,67.07,98.38,109.2,132.77,12.76,10.42,14.66,29.21,4.24,41.97-5.9,7.22-14.48,10.97-23.13,10.97Z"/><path class="cls-3" d="m2913.11,2224.07c-5.16,0-10.38-1.34-15.15-4.15-29.26-17.29-50.81-47.62-59.1-83.21-8.3-35.58-2.39-72.31,16.21-100.76,11.12-17.01,25.14-30.03,38.69-42.62,15.38-14.29,28.66-26.63,34.09-41.38,6.16-16.72,2.52-37.08-1.68-60.66-2.27-12.7-4.61-25.83-5.53-39.48-6.02-89.6,60.59-177.43,148.49-195.79,16.13-3.37,31.93,6.97,35.3,23.1,3.37,16.13-6.97,31.93-23.1,35.3-58.87,12.3-105.2,73.38-101.16,133.39.7,10.38,2.66,21.37,4.73,33,5,28.06,10.68,59.86-1.06,91.75-10.36,28.14-31.14,47.45-49.48,64.48-11.43,10.62-22.23,20.65-29.36,31.56-9.73,14.88-12.66,34.77-8.05,54.57,4.62,19.8,16.04,36.34,31.35,45.39,14.18,8.38,18.89,26.67,10.51,40.86-5.57,9.42-15.51,14.66-25.71,14.66Z"/><path class="cls-3" d="m3187.62,2153.04c-6.26,0-12.57-1.96-17.95-6.02-13.15-9.92-15.77-28.63-5.84-41.78,42.27-56.01,56.64-132.75,37.52-200.27-4.49-15.85,4.72-32.34,20.57-36.83,15.84-4.49,32.34,4.72,36.83,20.57,11.89,41.97,13.8,87.51,5.52,131.7-8.28,44.19-26.54,85.95-52.81,120.77-5.86,7.77-14.8,11.86-23.84,11.86Z"/><path class="cls-3" d="m3221.17,1475.61c-2.41,0-4.85-.29-7.29-.91-15.98-4.01-25.68-20.22-21.66-36.2,8.25-32.83,20.21-59.7,36.57-82.15,28.87-39.61,73.14-68.78,139.31-91.8,15.93-5.54,32.09-10.48,47.71-15.26,32.44-9.91,63.08-19.28,91.36-33.48,88.84-44.62,149.45-141.39,150.8-240.8.22-16.33,13.54-29.42,29.82-29.42.14,0,.28,0,.42,0,16.47.22,29.65,13.76,29.42,30.23-.81,59.64-18.7,119.04-51.72,171.77-33.02,52.73-78.66,94.76-131.96,121.53-32.8,16.47-67.32,27.02-100.7,37.22-15.09,4.61-30.7,9.38-45.55,14.55-54.15,18.84-89.32,41.27-110.7,70.6-11.77,16.15-20.58,36.28-26.92,61.54-3.4,13.54-15.56,22.57-28.91,22.57Z"/><path class="cls-3" d="m3971.42,1564.02c-14.66,0-27.44-10.81-29.51-25.74-2.26-16.32,9.13-31.38,25.45-33.65,28.52-3.96,53.62-29.44,57.15-58.01,3.53-28.57-14.62-59.39-41.32-70.17l-31.02-12.57c-10.96-4.44-18.26-14.94-18.62-26.76-.45-15.06-4.25-39.04-8.35-55.71l-8.02-.14c-42.47,2.18-76.62-28.5-91.7-60.19-14.21-29.86-15.76-62.66-15.33-93.66.05-3.28.11-6.57.17-9.86.43-22.83.84-44.4-4.36-63.59-7.07-26.08-25.68-48.96-49.78-61.19-14.69-7.46-20.56-25.41-13.1-40.1,7.46-14.69,25.41-20.56,40.1-13.1,38.91,19.75,68.95,56.68,80.37,98.79,7.43,27.42,6.92,54.32,6.42,80.33-.06,3.19-.12,6.38-.16,9.56-.31,22.15.15,47.44,9.55,67.2,7.51,15.8,22.66,27.06,35.17,26.21.85-.06,1.69-.08,2.54-.06l30.13.52c11.08.19,21.14,6.5,26.12,16.4,9.15,18.15,15.5,52.14,18.3,76.99l13.91,5.64c24.95,10.07,46.63,29.06,61.01,53.46,14.37,24.4,20.47,52.57,17.17,79.32-3.3,26.75-16.07,52.59-35.94,72.77-19.87,20.17-45.52,33.32-72.22,37.03-1.39.19-2.77.29-4.14.29Z"/><path class="cls-3" d="m3424.28,1307.25c-8.12,0-16.2-3.29-22.09-9.77-11.08-12.19-10.17-31.06,2.02-42.14,54.51-49.52,70.28-89.28,70.28-177.24,0-16.48,13.36-29.83,29.83-29.83s29.83,13.36,29.83,29.83c0,104.52-22.67,160.39-89.82,221.4-5.71,5.19-12.89,7.75-20.05,7.75Z"/><path class="cls-3" d="m3234.39,1434.03c-4.77,0-9.61-1.15-14.1-3.57-14.51-7.8-19.95-25.89-12.14-40.4,5.93-11.03,11.28-21.99,16.95-33.59,5.67-11.61,11.53-23.62,18.02-35.68,7.77-14.44,15.59-26.65,23.16-38.45,22.42-34.98,40.13-62.6,40.13-129.25,0-16.48,13.36-29.83,29.83-29.83s29.83,13.36,29.83,29.83c0,84.13-25.19,123.44-49.56,161.45-6.96,10.86-14.16,22.09-20.84,34.51-5.93,11.03-11.28,21.99-16.95,33.59-5.67,11.61-11.53,23.62-18.02,35.68-5.39,10.01-15.67,15.71-26.3,15.71Z"/><path class="cls-3" d="m3556.89,2566.83c-7.62,0-15.23-2.9-21.05-8.69l-27.49-27.37c-11.67-11.63-11.71-30.51-.09-42.19,11.63-11.67,30.52-11.71,42.19-.09l6.44,6.41,241.48-240.42c11.67-11.62,30.56-11.58,42.19.09,11.62,11.67,11.58,30.56-.09,42.19l-262.53,261.38c-5.82,5.79-13.43,8.69-21.05,8.69Z"/><path class="cls-3" d="m3189.29,2515.71c-16.48,0-29.83-13.36-29.83-29.83v-267.17c0-16.48,13.36-29.83,29.83-29.83s29.83,13.36,29.83,29.83v267.17c0,16.47-13.36,29.83-29.83,29.83Z"/><path class="cls-3" d="m3928.2,3145.73c-16.47,0-29.83-13.36-29.83-29.83v-897.2c0-16.48,13.36-29.83,29.83-29.83s29.83,13.36,29.83,29.83v897.2c0,16.47-13.36,29.83-29.83,29.83Z"/><path class="cls-3" d="m3927.36,2783.43c-16.47,0-29.83-13.36-29.83-29.83v-535.45c0-16.47,13.36-29.83,29.83-29.83s29.83,13.36,29.83,29.83v535.45c0,16.47-13.36,29.83-29.83,29.83Z"/><ellipse class="cls-2" cx="4353.74" cy="611.22" rx="65.88" ry="39.05"/><ellipse class="cls-2" cx="4222.79" cy="762.17" rx="65.88" ry="39.05"/><path class="cls-2" d="m4541.64,446.77c8.74,0,17.44,3.42,23.94,10.12,16.07,16.56,37.6,25.68,60.62,25.68,46.58,0,84.48-37.9,84.48-84.48,0-8.93-1.4-17.75-4.17-26.24-3.93-12.03-.71-25.24,8.31-34.11,24.34-23.96,37.74-55.93,37.74-90.04,0-69.67-56.68-126.36-126.35-126.36-12.01,0-23.98,1.72-35.56,5.11-8.92,2.61-18.52,1.38-26.49-3.39-7.97-4.77-13.59-12.66-15.5-21.75-8.1-38.57-42.65-66.57-82.14-66.57-46.29,0-83.95,37.66-83.95,83.95,0,1.44.04,2.94.12,4.45.78,15.03-8.61,28.72-22.91,33.41-37.39,12.25-62.5,46.92-62.5,86.28,0,28.44,12.98,54.72,35.62,72.08,9.9,7.6,14.73,20.09,12.52,32.37-1.19,6.61-1.8,13.23-1.8,19.69,0,60.67,49.36,110.03,110.04,110.03,24.7,0,48.05-8.02,67.53-23.2,6.06-4.72,13.29-7.04,20.48-7.04Z"/><path class="cls-3" d="m4615.06,520.17c-28.28,0-55.14-8.61-77.71-24.6-23.21,12.91-49.18,19.65-76.27,19.65-86.94,0-157.67-70.73-157.67-157.68,0-3.59.13-7.21.38-10.84-26.71-26.28-41.73-61.84-41.73-99.93,0-53.64,30.16-101.67,76.89-125.31,7.27-67.29,64.42-119.85,133.62-119.85,31.02,0,61.3,10.83,85.24,30.49,15.86,13.03,28.49,29.53,36.96,47.98,6.73-.8,13.5-1.2,20.29-1.2,94.97,0,172.24,77.27,172.24,172.24,0,40.62-13.94,79.02-39.57,109.84,1.47,8.01,2.21,16.15,2.21,24.34,0,74.37-60.5,134.88-134.88,134.88Zm-75.44-91.44c7.8,0,15.56,3.05,21.36,9.03,14.34,14.78,33.54,22.91,54.09,22.91,41.56,0,75.38-33.82,75.38-75.38,0-7.96-1.25-15.84-3.72-23.41-3.5-10.73-.63-22.52,7.41-30.43,21.71-21.37,33.67-49.9,33.67-80.34,0-62.17-50.58-112.74-112.74-112.74-10.72,0-21.4,1.53-31.73,4.56-7.95,2.33-16.52,1.23-23.64-3.03-7.11-4.26-12.13-11.29-13.83-19.41-7.23-34.42-38.05-59.39-73.29-59.39-41.3,0-74.9,33.6-74.9,74.9,0,1.29.04,2.62.11,3.97.7,13.41-7.68,25.63-20.44,29.81-33.36,10.93-55.77,41.87-55.77,76.98,0,25.38,11.58,48.82,31.78,64.32,8.83,6.78,13.14,17.92,11.17,28.88-1.06,5.9-1.6,11.81-1.6,17.57,0,54.14,44.04,98.18,98.18,98.18,22.04,0,42.87-7.16,60.26-20.7,5.41-4.21,11.86-6.28,18.27-6.28Z"/><path class="cls-3" d="m4614.9,518.56c-28.28,0-55.14-8.61-77.71-24.6-23.21,12.91-49.18,19.65-76.27,19.65-86.94,0-157.67-70.73-157.67-157.67,0-3.59.13-7.21.38-10.84-26.71-26.28-41.73-61.84-41.73-99.93,0-53.64,30.16-101.67,76.89-125.31,7.27-67.29,64.42-119.85,133.62-119.85,31.02,0,61.3,10.83,85.24,30.49,15.86,13.03,28.49,29.53,36.96,47.98,6.73-.8,13.5-1.2,20.29-1.2,94.97,0,172.24,77.27,172.24,172.24,0,40.62-13.94,79.02-39.57,109.84,1.47,8.01,2.21,16.15,2.21,24.34,0,74.37-60.5,134.88-134.88,134.88Zm-75.45-91.44c7.8,0,15.56,3.05,21.36,9.03,14.34,14.78,33.54,22.91,54.09,22.91,41.56,0,75.38-33.82,75.38-75.38,0-7.96-1.25-15.84-3.72-23.41-3.5-10.73-.63-22.52,7.41-30.43,21.71-21.37,33.67-49.9,33.67-80.34,0-62.17-50.57-112.74-112.74-112.74-10.72,0-21.4,1.53-31.73,4.56-7.96,2.33-16.53,1.23-23.64-3.03-7.11-4.26-12.13-11.29-13.83-19.41-7.23-34.41-38.05-59.39-73.29-59.39-41.3,0-74.9,33.6-74.9,74.9,0,1.27.04,2.61.11,3.99.69,13.41-7.69,25.61-20.45,29.8-33.36,10.93-55.77,41.87-55.77,76.98,0,25.38,11.58,48.82,31.78,64.31,8.83,6.78,13.14,17.92,11.17,28.88-1.06,5.9-1.6,11.81-1.6,17.57,0,54.14,44.04,98.18,98.18,98.18,22.04,0,42.87-7.16,60.26-20.7,5.41-4.21,11.86-6.28,18.27-6.28Z"/><path class="cls-3" d="m4223.67,833.33c-49.3,0-87.92-30.95-87.92-70.45s38.62-70.45,87.92-70.45,87.93,30.95,87.93,70.45-38.62,70.45-87.93,70.45Zm-28.4-70.45c1,2.83,10.82,10.95,28.4,10.95s27.39-8.12,28.4-10.95c-1-2.83-10.82-10.95-28.4-10.95s-27.39,8.12-28.4,10.95Zm56.84.15h0,0Z"/><path class="cls-3" d="m4349.99,685.94c-54.89,0-97.9-34.01-97.9-77.43s43-77.43,97.9-77.43,97.9,34.01,97.9,77.43-43,77.43-97.9,77.43Zm0-95.36c-23.45,0-38.4,11.77-38.4,17.93s14.95,17.93,38.4,17.93,38.4-11.77,38.4-17.93-14.95-17.93-38.4-17.93Z"/></g><g id="group-2"><path class="cls-2" d="m1306.23,1241.69c29.06,11.74,48.83,45.31,44.99,76.42-3.59,29.06-27.71,55.18-56.17,62.02.92-6.63,1.73-13.32,2.44-20.02,1.43-13.26-8.19-25.15-21.47-26.58-13.26-1.43-25.18,8.22-26.58,21.47-1.43,13.44-3.29,26.79-5.5,39.67-14.96,86.69-56.96,175.1-115.2,242.6-21.47,24.88-49.87,52.4-85.17,75.5-39.79,26.1-88.34,46.55-145.6,51.32-13.3,1.1-23.17,12.77-22.07,26.07,1.04,12.63,11.6,22.16,24.05,22.16.67,0,1.33-.02,2.03-.07,42.04-3.5,81.6-14.54,118.19-31.48-2.72,22.62-2.88,49.98-.64,82.8.23,3.34.39,6.72.55,10.17h-287.86c.16-2.85.35-6.01.64-10.17,5.45-79.88-7.13-117.09-18.69-134.21-5.06-7.53-13.32-14.11-15.74-15.92-.35-.25-.69-.51-1.06-.76-96.97-65.79-173.63-189.32-195.26-314.65-2.39-13.95-4.37-28.4-5.85-42.94-1.33-13.28-13.21-22.94-26.46-21.61-13.28,1.36-22.94,13.21-21.61,26.49.6,5.8,1.24,11.6,1.98,17.35-24.46-9.62-44.07-33.23-47.27-59.21-3.82-31.11,15.95-64.69,45.04-76.42l31.07-12.59c8.88-3.59,14.8-12.1,15.07-21.68.07-2.28.14-4.49.21-6.63,15.67-11.62,27.94-28.51,35.88-49.36,13.39-35.32,11.3-70.88,9.25-105.28-2.35-39.54-4.35-73.66,16.25-103,6.56-9.34-10.6-34.08-17.92-42.27,20.25-22.81,52.08-44.25,77-59l78.67-46.03c10.08,5.48,29.57,23.22,36.98,13.95,24.05-30.08,75.69-46.28,127.9-19.05,59.07,30.79,83.51,108.02,91.29,139.8,7.25,29.57,11.74,63.1,14.11,105.53.74,12.86,11.39,22.81,24.12,22.81.46,0,.92-.02,1.38-.05,9.34-.53,18.42-31.45,21.97-39.45,30.08,11.74,61.43,20.45,94,22.77,3.64,4.92,9.06,29.01,15.58,30.1,1.31.21,2.62.32,3.91.32,6.83,0,14.95-23.54,19.44-28.35,31.69,1.82,69.99,8.35,95.65,21.95,4.46,2.37-1.02,22.05,2.69,24.86,2.55,4.72,32.69,6.11,37.89,8.27,7.64,8.4,4.97,17.07,7.87,26.09-8.1,4.3-31.61,16.15-31.01,25.91l.32,5.04c1.1,17.42,1.96,31.18,2.55,51.09.3,9.57,6.21,18.09,15.07,21.68l31.11,12.59Z"/><path class="cls-1" d="m1100.43,1048.46c-30.7-2.39-61.1-6.72-88.67-18.06-2.58-44.09-7.46-79.53-15.23-111.33-11.6-47.41-42.07-132.67-115.89-171.17-30.31-15.81-65.26-22.09-98.42-17.65-36.18,4.81-67.98,22.34-89.56,49.36-6.14,7.69-6.83,17.97-2.6,26.19l-70.19,41.51c-26.49,15.69-56.13,33.21-77.9,58.59-9.48-2.49-19.91,1.01-25.87,9.48-30.28,43.15-27.43,91.22-24.92,133.63,1.73,28.93,3.34,56.36-4.65,80.87-7.64,27.29-39.4,43.84-39.9,54.29-.09,1.98-.18,3.98-.28,6.03l-16.52,6.7c-4.03,1.63-7.96,3.5-11.76,5.59l-6.33-21.01c7.02-6.14,10.1-16.09,7.06-25.54-5.13-15.95-62.09-165.39-72.79-193.47-9.04-81.62,7.73-166.01,47.29-237.95,40.06-72.81,103.37-132.69,178.3-168.63,12.04-5.75,17.12-20.2,11.35-32.24-.46-.97-.97-1.86-1.54-2.74,3.27-6.7,5.68-13.65,8.05-20.44l12.38-35.51c5.13.14,10.33-1.38,14.77-4.65,95-69.77,228.65-90.67,366.68-57.35,129.4,31.25,236.8,104.71,280.31,191.74,4.23,8.47,12.77,13.37,21.63,13.37,2.19-.02,4.37-.3,6.54-.92,6.81,10.98,14.45,21.4,22.87,31.2-5.55,9.2-4.44,21.33,3.43,29.39,73.48,75.14,113.61,182.14,107.86,287.08-13.58,29.5-75.3,165.28-83.3,210.31-1.63,9.14,2.09,17.97,8.93,23.29l-8.81,18.04c-5.8-3.75-11.97-6.95-18.41-9.55l-16.55-6.72c-.58-12.96-1.27-23.93-2.07-36.89l-.32-5.02c-.76-11.99-10.08-21.38-21.7-22.55-2.55-8.42-6.65-16.34-11.74-23.52,7.09-2.6,12.86-8.47,15-16.29,12.84-46.99,12.5-96.51-1.04-143.25-3.7-12.82-17.12-20.2-29.92-16.5-12.84,3.7-20.2,17.12-16.5,29.94,11.05,38.18,11.32,78.63.83,117.04-1.24-.74-2.49-1.43-3.73-2.09-26.53-14.08-56.7-17.7-88.02-19.65,9.67-60.32,1.91-124.4-21.88-180.58-5.2-12.29-19.38-18.04-31.69-12.84-12.29,5.22-18.02,19.4-12.82,31.69,20.39,48.16,26.99,103.16,18.55,154.83-.21,1.33-.32,2.65-.32,3.96Z"/><path class="cls-1" d="m662.48,1897.92l423.44-.22,17.27,64.04,51.08,53.51,268.53,118.09s59.77,35.01,74.9,46.7c15.13,11.69,112.43,80.54,126,91.64,38.77,31.72,59.33,238.84,59.33,238.84,0,0,36.77,158.03,36.77,284.56s-49.9,271.83-49.9,271.83H77.7s-58.34-206.74-47.05-347.88c11.29-141.14,39.13-353.68,56.52-387.52,17.39-33.84,81.13-91.73,118.64-116.73,22.51-15.01,117.75-75.95,143.2-85.24,25.45-9.29,128.22-79.49,198.91-97.71,70.69-18.22,99.85-43,104.22-69.96,4.37-26.97,10.33-63.95,10.33-63.95Z"/><polygon class="cls-2" points="311.58 2711.97 347.25 2663.89 417.03 2559.99 463.55 2544.49 587.61 2639.08 776.8 2784.85 655.84 2839.12 483.71 2874.79 311.58 2711.97"/><path class="cls-2" d="m1043.42,2716.72s40.92,52.61,55.54,74.54c14.61,21.92,86.23,97.92,86.23,97.92,0,0,51.15,55.54,64.31,61.38,13.15,5.85,39.46-42.38,42.38-52.61,2.92-10.23,100.84-220.68,100.84-220.68,0,0-36.54-52.61-84.77-48.23-48.23,4.38-168.07,42.38-182.68,49.69-14.61,7.31-81.84,38-81.84,38Z"/><path class="cls-3" d="m811.93,1637.02c-8.66,0-17.25-3.74-23.17-10.97-10.46-12.79-8.58-31.63,4.2-42.1,46.31-37.9,116.98-38.95,164.39-2.44,13.09,10.08,15.53,28.86,5.45,41.96-10.08,13.09-28.86,15.53-41.96,5.45-25.1-19.33-65.47-18.73-89.99,1.34-5.56,4.55-12.27,6.77-18.93,6.77Z"/><path class="cls-3" d="m83.35,3098.51c-11.13,0-21.82-6.24-26.98-16.94-23.39-48.57-39.07-101.31-47.94-161.23-7.93-53.56-10.24-112.02-7.05-178.71,5.8-121.35,29.3-254.89,57.12-404.29,3.02-16.24,18.64-26.96,34.89-23.93,16.24,3.02,26.96,18.64,23.93,34.89-27.41,147.2-50.55,278.62-56.17,396.2-6.2,129.77,9.41,228.63,49.13,311.13,7.17,14.89.91,32.76-13.97,39.93-4.18,2.01-8.61,2.97-12.96,2.97Z"/><path class="cls-3" d="m1664.68,3098.51c-4.35,0-8.77-.95-12.96-2.97-14.89-7.17-21.14-25.05-13.97-39.93,39.72-82.49,55.34-181.36,49.13-311.13-5.62-117.58-28.76-249-56.17-396.2-3.02-16.24,7.69-31.86,23.93-34.89,16.25-3.02,31.86,7.69,34.89,23.93,27.82,149.4,51.32,282.94,57.12,404.29,3.19,66.69.88,125.15-7.05,178.71-8.87,59.92-24.55,112.66-47.94,161.23-5.15,10.7-15.84,16.94-26.98,16.94Z"/><path class="cls-3" d="m1085.84,3096.84c-10.04,0-19.84-5.05-25.49-14.22-8.67-14.07-4.3-32.5,9.77-41.17,53.97-33.27,106.51-69.87,156.17-108.77,13.01-10.19,31.81-7.91,42,5.1,10.19,13.01,7.91,31.81-5.1,42-51.41,40.28-105.81,78.16-161.67,112.6-4.89,3.02-10.32,4.45-15.67,4.45Z"/><path class="cls-3" d="m397.29,2923.85c-14.08,0-26.62-9.98-29.35-24.32-3.1-16.23,7.55-31.9,23.78-34.99,212.34-40.5,421.83-101.59,622.66-181.57,15.35-6.11,32.75,1.37,38.86,16.72,6.11,15.35-1.37,32.75-16.72,38.86-204.35,81.38-417.52,143.54-633.59,184.76-1.89.36-3.78.54-5.64.54Z"/><path class="cls-3" d="m371.84,2635.42c-12.31,0-23.84-7.65-28.19-19.92-26.63-75.04-57.77-149.32-92.54-220.79-7.23-14.86-1.05-32.76,13.81-39.99,14.86-7.23,32.76-1.05,39.99,13.81,35.75,73.46,67.75,149.82,95.13,226.95,5.53,15.57-2.62,32.67-18.19,38.2-3.31,1.17-6.69,1.73-10.01,1.73Z"/><path class="cls-3" d="m1098.33,2722.25c-10.69,0-21.03-5.74-26.42-15.83-7.78-14.57-2.28-32.7,12.3-40.48,52.73-28.16,118.37-63.2,189.84-63.39.18,0,.37,0,.56,0,40.61,0,80.5,11.69,112.39,32.94,13.75,9.16,17.46,27.74,8.3,41.49-9.16,13.75-27.74,17.47-41.49,8.3-22.16-14.77-50.28-22.9-79.2-22.9-.13,0-.27,0-.4,0-56.58.15-112.49,30-161.81,56.34-4.49,2.4-9.31,3.53-14.07,3.53Z"/><path class="cls-3" d="m1287.36,2923.85c-4.81,0-9.69-1.16-14.22-3.61-14.53-7.87-19.93-26.02-12.07-40.55,94.43-174.44,163.72-361.09,205.96-554.76,3.52-16.14,19.46-26.38,35.6-22.85,16.14,3.52,26.37,19.46,22.85,35.6-43.44,199.17-114.7,391.11-211.81,570.49-5.41,10-15.71,15.68-26.34,15.68Z"/><path class="cls-3" d="m1197.85,2925.01c-7.08,0-14.19-2.5-19.89-7.58-45.04-40.13-86.41-84.81-122.97-132.79-10.01-13.14-7.48-31.91,5.67-41.93,13.14-10.01,31.91-7.48,41.93,5.67,34.24,44.95,73,86.79,115.18,124.38,12.34,10.99,13.42,29.9,2.43,42.24-5.91,6.63-14.11,10.01-22.35,10.01Z"/><path class="cls-3" d="m491.73,2900.23c-6.37,0-12.79-2.03-18.23-6.22-90.28-69.53-162.13-125.73-165.38-128.28-14.83-11.42-24.34-27.93-26.79-46.5-2.46-18.63,2.48-37.09,13.9-51.99,11.42-14.9,27.98-24.46,46.6-26.92,18.62-2.46,37.09,2.48,51.99,13.9l222.86,170.88c13.11,10.05,15.59,28.83,5.54,41.94-10.05,13.11-28.83,15.59-41.94,5.54l-222.86-170.88c-4.59-3.52-11.19-2.65-14.71,1.94-2.29,2.99-2.28,6.14-2.07,7.75s1.02,4.66,4.01,6.95c.08.06.16.12.24.18.72.57,73.38,57.42,165.12,128.07,13.09,10.08,15.53,28.87,5.45,41.96-5.89,7.65-14.76,11.66-23.72,11.66Z"/><path class="cls-3" d="m693.1,2849.51c-6.35,0-12.75-2.01-18.18-6.18l-268.34-205.76c-2.99-2.29-6.14-2.28-7.75-2.07-1.61.21-4.66,1.02-6.95,4.01-3.52,4.59-2.65,11.19,1.94,14.71,13.11,10.05,15.59,28.83,5.54,41.94-10.05,13.11-28.83,15.59-41.94,5.54-14.9-11.42-24.46-27.97-26.92-46.6-2.46-18.63,2.48-37.09,13.9-51.99,11.42-14.9,27.98-24.46,46.6-26.92,18.62-2.46,37.09,2.48,51.99,13.9l268.34,205.76c13.11,10.05,15.59,28.83,5.54,41.94-5.89,7.68-14.78,11.71-23.76,11.71Z"/><path class="cls-3" d="m787.33,2819.93c-6.35,0-12.75-2.01-18.18-6.18l-313.41-240.31c-4.59-3.52-11.19-2.65-14.71,1.94-3.52,4.59-2.65,11.19,1.94,14.71,13.11,10.05,15.59,28.83,5.54,41.94-10.05,13.11-28.83,15.59-41.94,5.54-30.77-23.59-36.61-67.82-13.02-98.59,23.59-30.77,67.82-36.61,98.59-13.01l313.4,240.31c13.11,10.05,15.59,28.83,5.54,41.94-5.89,7.68-14.78,11.71-23.76,11.71Z"/><path class="cls-3" d="m473.19,1215.74c-10.39,0-20.48-5.42-26.01-15.08-8.19-14.35-3.21-32.62,11.14-40.81,8.89-5.08,16.44-14.88,21.27-27.6,9.29-24.48,7.61-52.85,5.83-82.88-2.57-43.36-5.48-92.5,25.96-137.28,9.49-13.52,28.15-16.79,41.67-7.29,13.52,9.49,16.79,28.15,7.29,41.67-19.45,27.69-17.48,60.9-15.2,99.36,2.07,35,4.22,71.19-9.62,107.65-9.88,26.04-26.32,46.21-47.54,58.33-4.68,2.67-9.78,3.94-14.81,3.94Z"/><path class="cls-3" d="m395.8,1193.24c-12.64,0-24.39-8.08-28.47-20.76-3.71-11.53-45.64-122.09-72.92-193.6-.88-2.3-1.47-4.7-1.76-7.15-11.08-93.63,7.84-190.68,53.28-273.29,45.44-82.61,117.28-150.55,202.29-191.32,14.9-7.14,32.77-.86,39.91,14.04,7.14,14.9.86,32.77-14.04,39.91-73.85,35.42-136.27,94.45-175.74,166.21-38.89,70.7-55.42,153.59-46.7,233.81,11.35,29.76,67.49,177.11,72.63,193.06,5.06,15.73-3.58,32.58-19.31,37.64-3.05.98-6.14,1.45-9.17,1.45Z"/><path class="cls-3" d="m1285.24,613.81c-10.97,0-21.54-6.06-26.78-16.54-20.97-41.93-57.89-81.69-106.79-114.97-48.79-33.21-107.48-58.71-169.72-73.74-63.97-15.45-129.71-19.19-190.11-10.84-65.63,9.08-123.44,31.69-171.83,67.22-13.32,9.78-32.04,6.91-41.82-6.41-9.78-13.32-6.91-32.04,6.41-41.82,56.49-41.47,123.45-67.8,199.04-78.26,67.74-9.37,141.17-5.24,212.35,11.95,69.18,16.7,134.66,45.21,189.35,82.44,57.32,39.02,101.11,86.63,126.64,137.68,7.39,14.78,1.4,32.75-13.38,40.14-4.29,2.15-8.86,3.16-13.36,3.17Z"/><path class="cls-3" d="m1366.45,1199.27c-1.74,0-3.5-.15-5.27-.47-16.27-2.89-27.11-18.43-24.22-34.69,8.04-45.22,68.78-179.14,83.28-210.71,5.33-102.98-34.17-207.91-106.28-281.65-11.55-11.81-11.34-30.75.47-42.31,11.81-11.55,30.75-11.34,42.31.47,85.09,87.01,131.03,211.46,122.88,332.89-.25,3.65-1.16,7.23-2.7,10.56-28.43,61.47-75.58,170.46-81.05,201.22-2.58,14.49-15.19,24.68-29.42,24.68Zm83.32-238.47h.01-.01Z"/><path class="cls-3" d="m586.6,1144.29c-10.93,0-21.47-6.02-26.73-16.44-7.44-14.75-1.52-32.74,13.23-40.19,26.81-13.53,56.85-20.27,86.87-19.49,16.52.43,29.56,14.17,29.13,30.68-.42,16.25-13.73,29.14-29.89,29.14-.26,0-.53,0-.79-.01-20.16-.52-40.35,4-58.36,13.09-4.32,2.18-8.92,3.21-13.45,3.21Z"/><path class="cls-3" d="m1163.44,1144.29c-4.53,0-9.13-1.03-13.46-3.21-18.01-9.09-38.2-13.62-58.36-13.09-16.51.41-30.25-12.61-30.68-29.13-.43-16.52,12.61-30.25,29.13-30.68,30.02-.78,60.06,5.96,86.87,19.49,14.75,7.44,20.67,25.44,13.23,40.19-5.26,10.43-15.8,16.44-26.73,16.44Z"/><circle class="cls-3" cx="644.31" cy="1292.11" r="38.29" transform="translate(-445.43 344.92) rotate(-22.5)"/><circle class="cls-3" cx="1105.73" cy="1292.11" r="38.3" transform="translate(-589.8 1160.32) rotate(-45)"/><path class="cls-3" d="m1617.4,2305.79c-7.26,0-14.54-2.62-20.29-7.94-117.99-108.97-436.2-248.81-439.4-250.21-.34-.15-.68-.31-1.02-.47-32.54-15.7-58.69-37.98-79.95-68.12-4.93-6.98-11.56-19.67-16.8-51.23h-370.55c-5.24,31.56-11.88,44.25-16.8,51.23-21.26,30.13-47.42,52.41-79.95,68.12-.34.16-.67.32-1.02.47-3.2,1.4-321.41,141.24-439.4,250.21-12.14,11.21-31.06,10.46-42.27-1.68-11.21-12.14-10.46-31.06,1.68-42.27,124.03-114.54,435.75-252.19,455.48-260.84,23.15-11.26,41.09-26.6,56.41-48.23.6-1.14,5.96-12.34,9.93-50.04,1.6-15.23,14.44-26.79,29.75-26.79h422.94c15.31,0,28.15,11.56,29.75,26.79,3.97,37.7,9.34,48.9,9.93,50.04,15.32,21.63,33.26,36.97,56.41,48.23,19.7,8.63,331.45,146.29,455.48,260.84,12.14,11.21,12.89,30.14,1.68,42.27-5.9,6.38-13.93,9.62-21.99,9.62Z"/><path class="cls-3" d="m987.79,1064.63c-15.75,0-28.95-12.31-29.84-28.23-2.37-42.07-6.8-75.27-13.95-104.49-7.37-30.12-18.56-57.96-32.36-80.51-15.72-25.69-34.57-44.38-56.01-55.56-20.51-10.7-44.05-14.96-66.27-12-15.76,2.1-38.01,8.93-54.47,29.54-10.32,12.91-29.14,15.01-42.05,4.69-12.91-10.32-15.01-29.14-4.69-42.05,22.52-28.18,55.66-46.46,93.3-51.49,34.33-4.58,70.5,1.9,101.85,18.25,31.2,16.27,57.9,42.3,79.37,77.37,16.99,27.75,30.63,61.48,39.45,97.53,8.04,32.87,12.99,69.52,15.57,115.35.93,16.5-11.69,30.62-28.19,31.55-.57.03-1.14.05-1.71.05Z"/><path class="cls-3" d="m1124.64,1078.32c-1.6,0-3.22-.13-4.85-.39-16.31-2.66-27.37-18.04-24.71-34.34,8.26-50.62,1.8-104.49-18.18-151.67-6.44-15.21.67-32.77,15.88-39.21,15.21-6.44,32.77.67,39.21,15.88,24.33,57.45,32.19,123.02,22.13,184.64-2.39,14.68-15.09,25.1-29.49,25.1Z"/><path class="cls-3" d="m1263.67,1109.46c-2.61,0-5.27-.34-7.91-1.07-15.94-4.36-25.32-20.81-20.97-36.75,10.08-36.85,9.79-77.31-.81-113.95-4.59-15.87,4.55-32.46,20.42-37.05,15.87-4.59,32.46,4.55,37.05,20.42,13.81,47.75,14.18,98.36,1.05,146.36-3.64,13.29-15.69,22.03-28.84,22.03Z"/><path class="cls-3" d="m1045.11,1927.62c-15.88,0-29.11-12.49-29.86-28.51-.23-4.88-.39-9.73-.55-14.42-.24-7.26-.47-14.12-.92-20.71-4.75-69.34,1.29-115.01,18.99-143.73,8.67-14.06,27.1-18.44,41.17-9.77,14.06,8.67,18.44,27.1,9.77,41.17-13.81,22.4-12.34,77.43-10.23,108.24.52,7.64.78,15.35,1.03,22.81.15,4.49.3,9.14.51,13.6.77,16.5-11.98,30.51-28.48,31.29-.48.02-.95.03-1.43.03Z"/><path class="cls-3" d="m461.86,1435.13c-1.37,0-2.75-.09-4.15-.29-26.77-3.71-52.5-16.9-72.43-37.13-19.93-20.23-32.73-46.15-36.04-72.98-3.31-26.83,2.8-55.08,17.22-79.55,14.41-24.47,36.16-43.52,61.22-53.63l31.02-12.57c15.31-6.21,32.76,1.18,38.96,16.49,6.2,15.31-1.18,32.76-16.49,38.96l-31.06,12.59c-26.82,10.82-45.02,41.73-41.48,70.38,3.54,28.65,28.71,54.21,57.31,58.18,16.37,2.27,27.79,17.38,25.52,33.74-2.08,14.97-14.9,25.81-29.59,25.81Z"/><path class="cls-3" d="m1292.27,1435.13c-14.7,0-27.52-10.84-29.59-25.81-2.27-16.37,9.16-31.47,25.52-33.74,28.6-3.97,53.77-29.52,57.31-58.18,3.54-28.66-14.67-59.56-41.44-70.37l-31.11-12.6c-10.99-4.45-18.31-14.98-18.67-26.83-.59-19.82-1.41-32.86-2.55-50.92l-.32-5.02c-1.03-16.49,11.49-30.7,27.98-31.73,16.48-1.03,30.7,11.49,31.73,27.98l.31,5c.74,11.75,1.38,21.88,1.91,33.33l13.13,5.32c25.02,10.1,46.77,29.14,61.18,53.62,14.41,24.47,20.53,52.72,17.22,79.55-3.31,26.83-16.11,52.74-36.04,72.98-19.93,20.23-45.65,33.42-72.43,37.13-1.39.19-2.78.29-4.15.29Z"/><path class="cls-3" d="m899.93,1818.09c-15.4,0-28.48-11.82-29.78-27.44-1.37-16.46,10.87-30.92,27.34-32.29,106.07-8.8,181.93-72.75,226.89-124.85,57.58-66.72,99.09-154.13,113.87-239.82,2.21-12.78,4.04-26,5.45-39.29,1.75-16.43,16.49-28.33,32.91-26.59,16.43,1.75,28.33,16.48,26.59,32.91-1.55,14.58-3.57,29.1-5.99,43.14-16.58,96.08-63.07,194.03-127.54,268.73-35.29,40.89-74.94,74.01-117.86,98.43-47.17,26.84-97.43,42.64-149.38,46.95-.84.07-1.68.1-2.51.1Z"/><path class="cls-3" d="m707.14,1920.7c-.52,0-1.04-.01-1.57-.04-16.5-.85-29.18-14.92-28.33-31.42.16-3.18.3-5.8.41-8.13.35-7.03.58-11.68,1.23-21.22,3.65-53.34-2.01-88.45-9.32-99.92-.68-.75-2.18-2.1-3.43-3.11-55.62-37.95-105.46-91.93-144.17-156.17-36.45-60.47-61.74-127.37-73.14-193.45-2.62-15.18-4.76-30.89-6.36-46.69-1.66-16.44,10.31-31.11,26.75-32.78,16.44-1.66,31.11,10.31,32.78,26.75,1.46,14.42,3.41,28.73,5.79,42.54,10.15,58.84,32.78,118.57,65.43,172.74,34.48,57.21,78.53,104.98,127.39,138.13.44.3.87.61,1.29.93,3.32,2.52,11.64,9.26,17.05,17.29,21.81,32.4,22.72,92.84,19.64,137.83-.62,8.99-.82,13.17-1.17,20.11-.12,2.36-.25,5.02-.42,8.25-.83,15.97-14.04,28.37-29.85,28.37Z"/><path class="cls-3" d="m890.03,1421.15h-34.99c-16.52,0-29.92-13.39-29.92-29.92s13.39-29.92,29.92-29.92h34.99c16.52,0,29.92,13.39,29.92,29.92s-13.39,29.92-29.92,29.92Z"/><path class="cls-3" d="m1536.79,618.66c-5.87,0-11.88-.53-17.99-1.61-16.18-2.86-26.98-18.29-24.13-34.46,2.85-16.18,18.29-26.98,34.46-24.13,7.61,1.34,18.01,1.51,24.27-5.34,6.44-7.03,10.74-24.09,3.52-50.88-2.81-10.44.26-21.58,8.02-29.1,7.76-7.52,19-10.24,29.34-7.1,40.81,12.39,76.08,11.62,92.02-2.01,4.22-3.6,7.17-8.51,8.85-14.67-25.49-.04-48.59-6.32-67.03-18.25-51.68-33.44-46.32-68.28-41.62-81.71,9.33-26.65,39.79-42.89,74.09-39.48,22.27,2.21,43.49,12.53,59.74,29.06,10.65,10.83,19.01,23.88,25.03,39.04,24.13-11.76,39.65-29.86,41.56-48.53.28-2.74.5-5.43.66-8.07-3.71-.06-7.48-.18-11.29-.4-27.39-1.53-49.73-7.21-66.39-16.87-64.43-37.37-57.41-75.96-51.4-90.81,12.71-31.42,54.94-47.01,98.23-36.27,34.1,8.46,68.13,33.7,82.96,80.26,18.42-5.39,34.13-18.75,39.9-34.69,6.81-18.82.18-37.52-6.57-49.89-9.77-17.89-26.24-34.62-45.2-45.91-36.06-21.47-78.84-30.4-120.48-25.16-16.3,2.05-31.18-9.5-33.23-25.8-2.05-16.3,9.5-31.18,25.8-33.23,54.73-6.9,110.96,4.85,158.35,33.06,56.32,33.53,100.95,101.71,77.29,167.16-13.41,37.07-47.45,65.29-88.2,73.86-.16,6.06-.56,12.33-1.23,18.82-4.11,40.19-31.69,75.33-75.65,96.42-4.63,2.22-9.36,4.24-14.16,6.05-.68,36.65-16.67,58.69-31.34,71.23-17.43,14.9-40.59,23.23-68.83,24.75-11.45.62-23.46.11-35.96-1.52-.79,24.24-8.51,45.1-22.9,60.81-15.13,16.53-36.57,25.37-60.51,25.37Zm109.32-249.16c2.62,2.92,7.1,6.96,14.35,11.65,6.5,4.21,14.82,6.86,24.13,8-5.48-8.7-12.61-14.83-21.13-18-6.96-2.58-13.21-2.5-17.35-1.65Zm70.71-134.39c3.13,3.73,9.67,9.87,22.95,17.57,8.08,4.69,21.17,7.67,37.19,8.8-5.82-10.29-13.91-18.05-24.14-22.94-14.49-6.93-28.79-5.93-36-3.42Z"/></g></g></svg>