<?xml version="1.0" encoding="UTF-8"?><svg id="_レイヤー_2" xmlns="http://www.w3.org/2000/svg" width="70" height="70" viewBox="0 0 70 70"><defs><style>.cls-1{fill:#fff;}.cls-2{fill:#2e6c35;}</style></defs><g id="_レイヤー_1-2"><circle class="cls-2" cx="35" cy="35" r="35"/><path class="cls-1" d="m32.04,21.96c2.33,0,4.22-1.89,4.22-4.22s-1.89-4.22-4.22-4.22-4.22,1.89-4.22,4.22,1.89,4.22,4.22,4.22Z"/><path class="cls-1" d="m53.6,38.15c-.08-.51-.55-.86-1.07-.79l-2.16.33-.19-1.23c-.08-.5-.54-.84-1.04-.77l-.28.04c-.02-.15-.05-.29-.11-.44l-2.01-4.64c-.49-1.1-1.85-2.52-2.9-3.11,0,0-6.19-3.8-6.7-3.99-.29-.11-.61-.15-.92-.16l-3.1,6.19-3.76-5.04c-.23.15-.44.32-.58.49l-5.57,6.63-4.58,1.69c-.87.32-1.33,1.26-1.06,2.15l.02.07c.27.87,1.42,1.3,2.31,1.09l3.48-.78c.93-.21,1.82-.6,2.61-1.13l2.96-2.54.74,6.24c.07.51.09.63-.17,1.08l-2.14,3.45c-.83,1.33-1.43,2.79-1.78,4.32l-1.58,6.81c-.19,1.09.54,2.14,1.63,2.33h.08c1.04.2,2.04-.44,2.31-1.45l2.47-7.31,3.78-5.34,3.14,5.26c.2.39.45.74.76,1.04l5.84,5.71c.74.72,1.9.75,2.68.07l.09-.08c.4-.35.64-.84.67-1.37.03-.53-.15-1.04-.5-1.43l-4.93-5.49-2.68-7.85-.53-8.08,3.54,1.51,3.21,4.79c-.19.2-.31.47-.26.77l.19,1.23-2.16.33c-.51.08-.87.55-.79,1.07l.89,5.91c.08.51.55.86,1.07.79l9.18-1.38c.51-.08.86-.56.79-1.07l-.89-5.91Zm-20.71-5.76c0-.33.27-.6.6-.6s.6.27.6.6-.27.6-.6.6c-.33,0-.6-.27-.6-.6Zm.87,4.18c-.33,0-.6-.27-.6-.6s.27-.6.6-.6.6.27.6.6c0,.33-.27.6-.6.6Zm12.47.64c.46.37,1.1.46,1.66.21l.05-.02c.35-.16.61-.43.77-.76l.56-.08.04.03.18,1.23-3.11.47-.16-1.07Z"/><path class="cls-1" d="m31.7,26.27l1.21,1.63.85-1.71-.34-2.68c-.75.07-1.43.18-2.04.33l.31,2.43Z"/></g></svg>