<?xml version="1.0" encoding="UTF-8"?><svg id="_レイヤー_2" xmlns="http://www.w3.org/2000/svg" width="70" height="70" viewBox="0 0 70 70"><defs><style>.cls-1{fill:#fff;}.cls-2{fill:#2e6c35;}</style></defs><g id="_レイヤー_1-2"><circle class="cls-2" cx="35" cy="35" r="35"/><path class="cls-1" d="m19.65,47.95c-.86-.86-1.38-2.04-1.38-3.35v-4.78h-2.27v4.84c0,3.88,3.07,7.03,6.86,7.03h3.3v-2.34h-3.18c-1.3,0-2.47-.53-3.33-1.39Z"/><path class="cls-1" d="m22.71,33.39c1.69,0,3.06-1.37,3.06-3.06s-1.37-3.06-3.06-3.06-3.06,1.37-3.06,3.06,1.37,3.06,3.06,3.06Z"/><path class="cls-1" d="m30,43.79h-4.31v-6.39c0-1.43-1.15-2.81-2.56-3.01-1.86-.27-3.45,1.17-3.45,2.98v7.32c0,1.66,1.35,3.01,3.01,3.01.23,0,5.5-.02,5.5-.02l.29,4.46c.02.91.78,1.64,1.69,1.62.91-.02,1.64-.78,1.61-1.69l.18-6.33c0-1.08-.87-1.95-1.94-1.95Z"/><path class="cls-1" d="m53.66,39.81v4.78c0,1.31-.53,2.49-1.38,3.35-.86.86-2.03,1.39-3.33,1.39h-3.18v2.34h3.14c3.91,0,7.09-3.15,7.09-7.03v-4.84h-2.34Z"/><path class="cls-1" d="m49.28,33.39c1.69,0,3.06-1.37,3.06-3.06s-1.37-3.06-3.06-3.06-3.06,1.37-3.06,3.06c0,1.69,1.37,3.06,3.06,3.06Z"/><path class="cls-1" d="m52.33,44.69v-7.35c0-1.86-1.67-3.32-3.58-2.97-1.35.25-2.44,1.62-2.44,2.99v6.43s-4.31,0-4.31,0c-1.07,0-1.94.87-1.94,1.95l.18,6.35c-.02.92.7,1.68,1.61,1.7.91.02,1.67-.71,1.69-1.62l.29-4.47s5.27.02,5.5.02c1.66,0,3.01-1.35,3.01-3.02Z"/><rect class="cls-1" x="28.03" y="39.89" width="16.56" height="2.81"/><rect class="cls-1" x="35.06" y="44.26" width="1.95" height="6.8"/><path class="cls-1" d="m44.12,27.41c0,.57-.18,1.1-.52,1.59-.34.48-.83.9-1.44,1.22l-.44.23.58,1.29c-1.75-.3-3.37-.87-4.19-1.19h-.02s-.02-.01-.02-.01c-1.1-.35-1.96-1.02-2.39-1.82l-.93.51c.59,1.07,1.67,1.89,2.97,2.31h0c1.01.39,3.14,1.14,5.38,1.39l.92.1-.95-2.12c.56-.35,1.03-.78,1.39-1.29.45-.64.71-1.39.71-2.19,0-1-.41-1.92-1.08-2.64-.67-.72-1.58-1.26-2.63-1.55l-.28,1.02c.88.24,1.62.69,2.14,1.24.51.56.8,1.22.8,1.93Z"/><path class="cls-1" d="m28.63,27.17l-1.27,2.83.92-.1c3.16-.35,6.19-1.41,7.63-1.97,1.37-.44,2.54-1.18,3.39-2.15.86-.98,1.37-2.19,1.37-3.5,0-.86-.22-1.68-.61-2.41-.59-1.1-1.56-2.02-2.76-2.66-1.2-.64-2.63-1.01-4.17-1.01-2.05,0-3.92.66-5.29,1.74-.69.54-1.25,1.19-1.64,1.93-.39.73-.61,1.55-.61,2.41,0,1.09.36,2.12.98,3,.53.75,1.24,1.39,2.08,1.89Zm-1.52-6.8c.48-.89,1.29-1.67,2.33-2.23,1.04-.56,2.31-.89,3.68-.89,1.83,0,3.47.59,4.64,1.51.58.46,1.05,1.01,1.37,1.6.32.59.49,1.24.49,1.91,0,1.03-.4,1.99-1.11,2.81-.71.81-1.73,1.47-2.95,1.85h-.02s-.02.01-.02.01c-1.24.48-3.76,1.36-6.43,1.78l.91-2.03-.45-.23c-.9-.46-1.63-1.08-2.14-1.8-.51-.72-.79-1.53-.79-2.39,0-.68.17-1.32.49-1.91Z"/></g></svg>