<?xml version="1.0" encoding="UTF-8"?><svg id="_レイヤー_2" xmlns="http://www.w3.org/2000/svg" width="70" height="70" viewBox="0 0 70 70"><defs><style>.cls-1{fill:#fff;}.cls-2{fill:#2e6c35;}</style></defs><g id="_レイヤー_1-2"><circle class="cls-2" cx="35" cy="35" r="35"/><path class="cls-1" d="m34.87,22.44h-7.61c-.48,0-.87.39-.87.87v6.42h8.47v-7.29h0Z"/><path class="cls-1" d="m37.92,29.73h8.47v-6.42c0-.48-.39-.87-.87-.87h-7.61v7.29h0Z"/><path class="cls-1" d="m27.27,39.47h7.61v-7.29h-8.47v6.42c0,.48.39.87.87.87Z"/><path class="cls-1" d="m37.92,39.47h7.61c.48,0,.87-.39.87-.87v-6.42h-8.47v7.29h0Z"/><path class="cls-1" d="m28.9,18.94c.58.71,1.39,1.31,2.37,1.75.98.44,2.14.7,3.42.7.72,0,1.52,0,1.54,0,.03,0,.82,0,1.54,0,.97,0,1.88-.15,2.69-.42,1.21-.4,2.22-1.05,2.93-1.83.36-.39.64-.82.84-1.27.2-.45.31-.93.31-1.41,0-.32-.05-.64-.16-.95-.12-.34-.29-.66-.51-.93-.32-.41-.73-.72-1.19-.93-.45-.21-.95-.32-1.46-.32-.37,0-.75.06-1.12.18-.55.18-1.08.51-1.53.97-.45.47-.81,1.07-1.05,1.81-.31.96-1.24,3.12-1.27,3.17h-.09c-.03-.05-.96-2.22-1.27-3.17-.16-.49-.37-.92-.63-1.29-.39-.56-.87-.98-1.4-1.26-.53-.28-1.1-.41-1.66-.41-.68,0-1.34.19-1.9.56-.28.19-.53.42-.75.69-.22.27-.39.58-.51.93-.11.31-.16.63-.16.95,0,.32.05.64.14.95.16.54.45,1.06.84,1.53Zm10.06-2.22c.12-.36.27-.66.44-.91.26-.37.55-.62.87-.78.31-.16.65-.24.97-.24.39,0,.78.11,1.08.32.15.1.29.22.4.37.11.14.2.31.27.49.05.15.08.3.08.46s-.03.34-.08.52c-.1.32-.28.67-.56,1.01-.42.51-1.04.99-1.83,1.34-.79.35-1.74.57-2.81.57-.06,0-.11,0-.17,0,.39-.65.86-1.65,1.35-3.14Zm-9.51-.76h0c.06-.19.16-.35.27-.49.17-.21.39-.38.64-.5.25-.12.54-.18.84-.18.22,0,.44.03.65.11.32.11.64.3.92.59.28.29.53.69.71,1.24.48,1.49.96,2.49,1.35,3.14-.05,0-.11,0-.17,0-.82,0-1.56-.13-2.22-.34-.99-.32-1.77-.85-2.3-1.42-.26-.29-.46-.58-.58-.87-.13-.29-.19-.56-.19-.8,0-.17.03-.32.08-.46Z"/><path class="cls-1" d="m51.58,41.27c-.65-.71-1.55-1.03-2.41-1.03h-.06c-.84.03-1.66.32-2.35.83h-.02s0,.02,0,.02l-.02.02h0c-.07.06-.28.22-.54.41-.92.66-2.62,1.82-4.11,2.82-.37-1.38-1.62-2.4-3.12-2.4h-8.54c-2.8,0-4.79.6-6.29,1.5-1.38.83-2.31,1.85-3.15,2.7l-3.45.92.08,9.62,7.52-2.2c.14-.02.28-.03.4-.03.16,0,.3.01.38.03h.04s-.11,0-.11,0l9.46,1.69c.23.04.45.06.68.06.79,0,1.56-.24,2.21-.69h.01s0-.02,0-.02h0c.05-.04,3.07-2.22,6.22-4.51,1.59-1.15,3.2-2.33,4.48-3.28.64-.47,1.2-.88,1.63-1.2.43-.32.72-.54.89-.68h.01s.02-.02.02-.02h0s0,0,0,0c.67-.61,1.06-1.44,1.06-2.29h0c0-.84-.34-1.63-.92-2.25Zm-1.2,3.27c-.11.09-.39.31-.8.61-1.48,1.11-4.55,3.35-7.25,5.32-1.35.98-2.61,1.9-3.52,2.57-.88.64-1.45,1.05-1.49,1.08-.36.25-.77.38-1.2.38-.12,0-.25-.01-.37-.03l-9.47-1.7h0c-.2-.04-.44-.06-.7-.06-.22,0-.46.02-.71.06h-.04s-5.46,1.6-5.46,1.6l-.05-5.91,2.6-.7.12-.12c.96-.96,1.8-1.94,3.02-2.67,1.22-.73,2.84-1.26,5.43-1.27h8.54c.83,0,1.51.68,1.51,1.52,0,.42-.17.8-.44,1.08-.28.28-.65.45-1.06.45h-5.83c-.3,0-.56.2-.63.49-.09.41.22.78.61.78v-.08h5.85c.29,0,.57-.06.84-.14.13,0,.26-.02.37-.09,0,0,1.67-1.11,3.46-2.31.9-.6,1.82-1.23,2.59-1.76.38-.27.72-.5,1-.71.27-.19.47-.34.61-.46.42-.31.92-.47,1.37-.47.45,0,.84.15,1.13.47.32.35.46.73.46,1.07,0,.35-.14.69-.48,1.01Z"/><path class="cls-1" d="m46.76,41.08s0,0,0,0l.02-.02-.03.02Z"/></g></svg>