<?xml version="1.0" encoding="UTF-8"?><svg id="_レイヤー_2" xmlns="http://www.w3.org/2000/svg" width="70" height="70" viewBox="0 0 70 70"><defs><style>.cls-1{fill:#fff;}.cls-2{fill:#2e6c35;}</style></defs><g id="_レイヤー_1-2"><circle class="cls-2" cx="35" cy="35" r="35"/><path class="cls-1" d="m30.4,23.94h9.75c1.16,0,2.1-.94,2.1-2.1v-2.1c0-1.16-.94-2.1-2.1-2.1h-2.64c-.11-1.15-1.06-2.05-2.24-2.05s-2.13.9-2.24,2.05h-2.64c-1.16,0-2.1.94-2.1,2.1v2.1c0,1.16.94,2.1,2.1,2.1Zm4.91-7.11c.57,0,1.03.46,1.03,1.03s-.46,1.03-1.03,1.03-1.03-.46-1.03-1.03.46-1.03,1.03-1.03Z"/><path class="cls-1" d="m54.99,27.79s0,.01.01.02c0,0,.01,0,.01.01l-.03-.03Z"/><path class="cls-1" d="m55.01,27.81c-.68-.66-1.76-.66-2.43.01l-1.54,1.54,2.42,2.42,1.54-1.54c.67-.67.67-1.75.01-2.43Z"/><path class="cls-1" d="m39.89,46.06l5.25-5.25-3.14-3.14-5.25,5.25c-.31.31-.31.83,0,1.14l1.99,1.99c.32.32.83.32,1.14,0Z"/><polygon class="cls-1" points="35.14 47.26 34.41 47.99 34.83 48.41 35.56 47.68 38.68 46.66 36.16 44.14 35.14 47.26"/><path class="cls-1" d="m47.63,23.2v7.07l2.5-2.47v-4.46c0-1.93-1.56-3.49-3.49-3.49h-3.1v1.96c0,.24-.03.47-.07.69h3.47c.39,0,.7.31.7.7Z"/><path class="cls-1" d="m47.64,50.24c0,.4-.7.68-.7.68h-23.24c-.39,0-.7-.31-.7-.7v-27.03c0-.39.31-.7.7-.7h3.47c-.05-.22-.07-.44-.07-.67v-1.91h-3.1c-1.93,0-3.49,1.56-3.49,3.49v27.5c0,1.93,1.56,3.49,3.49,3.49h22.57c1.93,0,3.49-1.56,3.49-3.49v-13.32l-2.43,2.47v10.18h0Z"/><path class="cls-1" d="m42.57,37.11l3.14,3.14,7.65-7.65-3.13-3.13-7.65,7.65Zm8.4-5.26c.27.27.27.71,0,.98l-3.72,3.72c-.27.27-.71.27-.98,0-.27-.27-.27-.71,0-.98l3.72-3.72c.27-.27.71-.27.98,0Z"/><polygon class="cls-1" points="25.66 29.42 28.14 31.9 29.04 31 31.51 28.52 30.61 27.62 28.14 30.1 26.56 28.52 25.66 29.42"/><polygon class="cls-1" points="30.61 34.09 28.14 36.57 26.56 34.99 25.66 35.89 28.14 38.37 29.04 37.47 31.51 34.99 30.61 34.09"/><polygon class="cls-1" points="26.56 41.46 25.66 42.36 28.14 44.84 29.04 43.94 31.51 41.46 30.61 40.56 28.14 43.04 26.56 41.46"/></g></svg>