<?xml version="1.0" encoding="UTF-8"?><svg id="_レイヤー_2" xmlns="http://www.w3.org/2000/svg" width="2009.44" height="3145.74" viewBox="0 0 2009.44 3145.74"><defs><style>.cls-1{fill:#fff;}.cls-2{fill:#f17d00;}.cls-3{fill:#38261f;}</style></defs><g id="_layer"><g id="group"><path class="cls-1" d="m417.62,2212.84l94.05-44.64,8.45,227.47-14.79,100.55-6.7,60.67-38.56,17.17-62.06,140.7s-2.59-474.49-3.89-475.35c-1.3-.87,23.49-26.57,23.49-26.57Z"/><path class="cls-1" d="m1207.47,1371.13c29,11.7,48.69,45.16,44.88,76.18-3.58,28.98-27.6,55.05-56.01,61.84.92-6.61,1.72-13.26,2.43-19.94,1.4-13.24-8.19-25.1-21.43-26.5-13.22-1.42-25.08,8.17-26.5,21.41-1.42,13.4-3.26,26.71-5.48,39.56-14.92,86.44-56.77,174.6-114.85,241.9-23.36,27.05-48.75,62.54-86.68,89.58-20.26,14.45-32.57,32.1-32.58,58.36-2.02,17.74-2.48,38.99-1.35,63.65.69,15.12,5.12,91.99,24.42,119.32,41.26,58.47,98.65,88.85,165.35,117.58l-44.54,41.63c-9.36-6.4-22.24-5.46-30.57,2.82l-243.24,286.21-94.75-33.58-7.18-259.15,71.72-5.66-4.22,83.89,58.08,11.29,17.26-230.39-14.09-92.37c-5.76-23.94-75.4-9.98-146.01-1.77l29.75-63.07c74.04-25.12,82.26-22.17,155.8-51.05,24.53-34.74-5.12-57.47-33.55-63.41-6.96-1.45-189.77,48.46-198.42,43.14-.18-.11-20.77-13.46-44.39-28.6-54.61-31.69-53.95-80.71-92.89-141.77-36.1-56.63-61.93-122.42-72.76-185.2-2.41-13.91-4.36-28.32-5.83-42.82-1.35-13.24-13.17-22.88-26.41-21.55-13.24,1.33-22.88,13.15-21.55,26.39.6,5.78,1.24,11.54,1.97,17.28-24.39-9.55-43.92-33.11-47.11-59.02-3.83-31.02,15.88-64.48,44.91-76.18l42.18-43.4c8.54,24.32,19.67,53.37,40.41,68.65-1.95,6.08-12.67,36.98-14.33,43.52-3.24,12.9,4.59,26,17.51,29.23,1.95.5,3.92.73,5.87.73,10.78,0,20.61-7.3,23.36-18.22,4.27-17.05,9.66-31.85,16.32-44.75,3.49-6.77,7.32-13.01,11.52-18.79,22.1-30.31,58.15-53.4,113.45-72.63,14.96-5.21,30.63-9.98,45.78-14.62,33.14-10.12,67.42-20.61,99.8-36.85,106.36-53.42,178.89-169.26,180.52-288.26.02-2.41-.3-4.75-.92-6.98,2.41-.8-13.27-19.23-12.1-19.44,12.66-4.38,32.87-7.55,49.67-1.95.92,7.71,2.77,36.48,10.25,40.27,25.52,12.96,45.23,37.17,52.71,64.8,5.42,19.99,5,41.95,4.57,65.21-.07,3.28-.14,6.56-.18,9.82-.41,30.31,1.08,62.32,14.78,91.12,14.27,29.99,46.51,59.04,86.42,56.91l12.57.21c4.64,17.21,9.11,44.26,9.64,61.22.28,9.55,6.17,18.01,15.03,21.62l31,12.55Z"/><path class="cls-2" d="m1253.34,1288.64c-3.79,15.03-9.61,29.33-17.39,42.7-3.37-1.81-6.86-3.44-10.42-4.89l-17.12-6.93c-2.52-24.42-8.93-60.33-18.06-78.43-4.02-7.99-12.16-13.08-21.11-13.24l-30.13-.5c-.69-.02-1.35,0-2.04.05-16.98,1.15-33.36-13.95-40.73-29.46-9.94-20.88-10.44-46.95-10.12-69.74.05-3.19.11-6.4.16-9.59.5-25.61,1.01-52.11-6.22-78.73-10.99-40.57-39.93-76.16-77.42-95.18-10.46-5.3-22.97-2.25-29.9,6.68-12-3.42-24.78-4.22-37.04-2.13-5.55.94-10.53,2.57-14.85,4.77-3.21-1.65-6.84-2.62-10.69-2.66-13.31-.23-24.23,10.44-24.42,23.75-1.38,101.49-63.26,200.3-153.97,245.85-4.02,2.02-8.1,3.97-12.21,5.78,22.3-39.51,30.89-84.83,30.89-148.63,0-13.31-10.78-24.09-24.09-24.09s-24.09,10.78-24.09,24.09c0,88.23-15.6,129.08-69.05,178.62-13.58,4.15-27.51,8.49-41.21,13.26-15.7,5.46-30.13,11.24-43.39,17.49,18.75-31.96,33.73-68.73,33.73-134.38,0-13.31-10.78-24.09-24.09-24.09s-24.09,10.78-24.09,24.09c0,68.34-18.1,96.58-41.03,132.33-7.5,11.73-15.26,23.84-22.92,38.07-6.45,11.98-12.28,23.93-17.92,35.5-5.69,11.66-11.06,22.65-17.05,33.78-1.38,2.57-2.25,5.28-2.64,8.03-.28.69-.57,1.4-.83,2.09-17.53-14.36-30.59-34.21-36.67-56.06,1.49-3.01,2.36-6.36,2.46-9.87.6-19.85,1.45-33.57,2.55-50.94l.32-5.03c.83-13.29-9.27-24.74-22.53-25.56-13.26-.85-24.74,9.27-25.56,22.53l-.32,5.03c-.8,12.92-1.49,23.86-2.04,36.78l-16.48,6.68c-8.74,3.53-16.96,8.17-24.51,13.7-5.12-9.36-9.29-19.16-12.51-29.3,6.2-5.48,9.41-14.02,7.69-22.74-37.95-192.48,17.44-406.39,141.12-544.96,6.82-7.62,7.89-18.38,3.53-26.96,9.64-10.83,20.22-20.72,31.64-29.58,8.61,7.53,21.64,8.03,30.89.64,104.11-83.18,240.73-116.04,365.5-87.86,125.27,28.27,240.76,118.43,308.95,241.17,68.68,123.57,90.39,281.79,58.08,423.21-2.23,9.71,1.77,19.39,9.36,24.87Z"/><path class="cls-1" d="m1125.41,2224.98v436.86s.88,259.49,1.71,454.06h-571.62s51.18-267.03,54.63-268.47c.41.76,23.24-232.39,23.91-231.77l32.29-78.66c-3.58,8.74,8.52-51.12,19.37-75.69,0,0,87.18,99.78,93.33,99.78s12.3-2.34,17-7.02l262.53-261.36c5.83-5.81-2.59-34.91-3.95-42.42l40.65-37.43c.3-.3,22.54,9.38,22.79,9.06,2.43,1.01,4.86,2.04,7.34,3.07Z"/><path class="cls-2" d="m447.36,1903.41c19.62,69.21,4.86,147.87-38.46,205.28-7.21,9.55-6.22,22.74,1.79,31.12-11.66,25.1-29.03,47.32-50.55,64.66-19,8.21-38.64,17.05-58.88,26.96-50.99,16.43-97.5,7.6-143.94-27.42,4.91-11.04.87-24.23-9.78-30.52-16.66-9.82-29.05-27.7-34.03-49.01-4.96-21.32-1.74-42.82,8.83-59.02,7.53-11.5,18.56-21.75,30.27-32.61,17.85-16.61,38.11-35.41,48-62.28,11.2-30.43,5.67-61.41.78-88.76-2.09-11.79-4.08-22.92-4.8-33.62-4.22-62.71,44.2-126.55,105.72-139.4,10.6-2.2,18.1-11.11,19.05-21.36,27.79-6.95,56.68-8.61,85.06-4.91,8.15,16.59,17.1,32.75,26.73,48.33.09.5.23,1.01.41,1.49,17.05,45.32,26.09,94.27,26.5,142.82-10.37,4.96-15.95,16.8-12.71,28.25Z"/><path class="cls-1" d="m29.84,3115.9h540.02c5.27-16.74,40.27-268.47,63.28-493.14-36.8-29.56-144.13-48.67-158.39-49.54-15.79,18.62-40.84,94.11-64.57,141.55-2.05-224.11-5.34-383.32-5.63-496.06-60.39,18.06-143.79,47.74-191.66,86-27.09,21.65-55.53,47.04-77.42,76.05-115.14,316.88-105.62,735.14-105.62,735.14Z"/><path class="cls-1" d="m1560.27,3115.9h-405.32s7.13-715.61,6.88-897.2c60.39,18.06,143.79,47.74,191.66,86,27.09,21.65,55.53,47.04,77.42,76.05,80.11,106.19,92.22,259.42,106.84,395.23,19.82,184.05,24.3,340,22.51,339.92Z"/><polygon class="cls-1" points="484.27 2563.9 507.81 2477.16 517.72 2370.59 510.29 2115.33 537.55 2011.24 589.59 1899.72 792.82 1835.28 846.1 1845.19 854.77 1888.56 781.66 1926.98 691.87 1953.93 675.1 2018.67 787.86 2002.57 812.64 2036.02 811.4 2076.91 826.27 2125.24 832.47 2204.55 803.97 2330.94 761.84 2340.85 744.49 2319.79 743.25 2245.44 679.39 2252.01 688.73 2432.55 672.62 2527.97 637.92 2603.55 484.27 2563.9"/><path class="cls-3" d="m1260.35,3144.76c-15.53,0-28.63-12.03-29.73-27.76-8.68-124.86-7.07-246.5,4.8-361.56,1.69-16.39,16.33-28.29,32.73-26.61,16.39,1.69,28.3,16.35,26.61,32.73-11.52,111.66-13.07,229.85-4.63,351.3,1.14,16.44-11.25,30.69-27.69,31.83-.7.05-1.41.07-2.1.07Z"/><path class="cls-3" d="m715.74,1767.62c-8.64,0-17.2-3.73-23.1-10.94-10.43-12.75-8.56-31.54,4.19-41.98,46.18-37.79,116.65-38.84,163.92-2.44,13.05,10.05,15.49,28.78,5.43,41.84-10.05,13.05-28.78,15.49-41.84,5.43-25.03-19.27-65.28-18.68-89.73,1.34-5.54,4.54-12.23,6.75-18.88,6.75Z"/><path class="cls-3" d="m216.77,2334.94c-9.71,0-19.24-4.74-24.96-13.46-9.04-13.77-5.21-32.27,8.57-41.31,44.19-29.01,180.14-94.14,220.75-113.4,14.89-7.06,32.68-.72,39.74,14.16,7.06,14.88.72,32.68-14.16,39.74-81.89,38.85-181.01,87.99-213.58,109.38-5.05,3.31-10.73,4.9-16.34,4.9Z"/><path class="cls-3" d="m1344.42,2334.94c-5.62,0-11.3-1.58-16.34-4.9-68.88-45.22-134.27-72.37-191.97-96.33-84-34.88-156.55-65-206.53-135.84-17.8-25.22-23.39-89.86-24.96-116.47-2.03-34.16-2.87-95.96,14.24-126.05,8.14-14.32,26.35-19.33,40.68-11.19,14.32,8.14,19.33,26.35,11.19,40.68-4.27,7.51-9.58,37.82-6.69,90.52,2.71,49.46,10.71,81.79,14.46,88.34,40.05,56.6,102.04,82.34,180.51,114.92,60.12,24.96,128.27,53.26,201.83,101.55,13.77,9.04,17.61,27.54,8.57,41.31-5.73,8.73-15.25,13.46-24.96,13.46Zm-365.88-271.13h0,0Z"/><path class="cls-3" d="m33.08,3144.76c-15.68,0-28.83-12.24-29.75-28.1-7.79-133.88-1.94-258.4,17.9-380.67,19.74-121.63,53.46-241.87,103.09-367.61,6.05-15.32,23.38-22.85,38.7-16.79,15.33,6.05,22.84,23.38,16.79,38.7-48.04,121.7-80.65,237.91-99.69,355.26-19.13,117.91-24.77,238.17-17.23,367.64.96,16.45-11.6,30.56-28.05,31.51-.59.03-1.18.05-1.76.05Z"/><path class="cls-3" d="m1550.24,3144.76c-.58,0-1.17-.02-1.76-.05-16.45-.96-29-15.07-28.05-31.51,7.54-129.48,1.9-249.73-17.23-367.64-19.04-117.35-51.65-233.56-99.69-355.26-6.05-15.32,1.47-32.65,16.79-38.7,15.32-6.05,32.65,1.47,38.7,16.79,49.63,125.73,83.35,245.98,103.09,367.61,19.84,122.27,25.69,246.78,17.9,380.67-.92,15.86-14.07,28.1-29.75,28.1Z"/><path class="cls-3" d="m247.97,3145.74c-3.91,0-7.88-.77-11.71-2.41-15.15-6.47-22.18-24-15.71-39.15,8.93-20.91,17.93-41.79,27.45-63.9,68.28-158.52,145.68-338.19,181.8-490.28,1.91-8.04,7.08-14.94,14.26-19.03,7.19-4.09,15.75-5.02,23.64-2.56l175.21,54.62c12.71,3.96,21.26,15.87,20.94,29.18-2,84.67-24.38,255.78-66.5,508.58-2.71,16.25-18.08,27.24-34.33,24.52-16.25-2.71-27.23-18.08-24.52-34.33,37.61-225.73,59.84-389.79,64.78-477.82l-123.23-38.42c-39.7,149.78-112.52,318.82-177.26,469.12-9.51,22.07-18.49,42.92-27.38,63.74-4.84,11.33-15.86,18.12-27.45,18.12Z"/><path class="cls-3" d="m802.22,2177.63c-12.6,0-24.32-8.05-28.39-20.69-5.05-15.68,3.57-32.49,19.25-37.54.61-.2,1.19-.47,1.72-.81,2-1.27,4.12-4.09,3.49-7.82-.44-2.6-1.95-4.16-3.14-5.01-1.19-.85-3.16-1.77-5.76-1.33-.07.01-.14.02-.21.04l-109.59,17.62c-16.27,2.62-31.57-8.45-34.19-24.72-2.62-16.27,8.45-31.57,24.72-34.19l109.49-17.61c17.71-2.95,35.51,1.16,50.15,11.58,14.67,10.44,24.39,25.96,27.38,43.71,4.5,26.75-7.38,53.46-30.28,68.04-4.83,3.07-10.04,5.52-15.48,7.27-3.04.98-6.12,1.45-9.15,1.45Z"/><path class="cls-3" d="m504.37,2532.84c-1.45,0-2.91-.11-4.38-.32-16.3-2.4-27.57-17.55-25.17-33.85l18.49-125.72c-1-21.28-7.24-153.75-7.96-169.17-2.32-16.2-13.71-105.73,10.05-154.78l66.23-158.29c3.43-8.2,10.34-14.44,18.84-17.03l217.11-66.06c34.41-12.5,72.76,4.9,85.92,39.22,13.3,34.7-4.11,73.75-38.8,87.05-.56.21-1.12.41-1.69.59l-127.95,40.44-20.05,43.43c-6.91,14.96-24.63,21.49-39.59,14.58-14.96-6.91-21.49-24.63-14.58-39.59l25.57-55.39c3.52-7.62,10.09-13.41,18.09-15.94l139.35-44.05c3.63-1.7,5.39-5.96,3.94-9.76-1.53-3.98-6-5.97-9.98-4.45-.66.25-1.32.48-1.99.68l-204.55,62.24-61.16,146.18c-.26.62-.54,1.22-.84,1.82-13.33,26.68-8.91,93.58-4.67,121.8.15,1,.25,2.01.3,3.02q8.17,173.6,8.18,173.73c.07,1.85-.02,3.7-.29,5.53l-18.91,128.57c-2.18,14.83-14.92,25.49-29.48,25.49Z"/><path class="cls-3" d="m802.44,2096.89c-7.88,0-15.74-3.1-21.61-9.26-11.36-11.93-10.9-30.81,1.03-42.17.9-.86,2.94-3.25,2.32-6.9-.44-2.6-1.95-4.16-3.14-5.01-1.19-.85-3.17-1.77-5.76-1.33-.12.02-.24.04-.36.06l-156.13,24.34c-16.27,2.53-31.53-8.6-34.07-24.88-2.54-16.28,8.6-31.53,24.88-34.07l155.99-24.32c17.67-2.92,35.44,1.2,50.05,11.6,14.67,10.44,24.39,25.96,27.38,43.71,3.72,22.1-3.76,44.53-20.01,60.01-5.77,5.5-13.18,8.23-20.57,8.23Z"/><path class="cls-3" d="m665.42,2569.83c-2.96,0-5.97-.44-8.95-1.38-15.72-4.94-24.45-21.68-19.52-37.4,5.54-17.65,19.98-69.36,20.29-96.26.33-29-11.74-138.38-16.42-178.08-1.9-16.16,9.49-30.87,25.62-33.05l84.67-11.48c9.29-1.26,18.64,1.93,25.24,8.6,6.59,6.68,9.66,16.06,8.28,25.34l-9.48,63.77c.7.55,1.56,1.04,2.64,1.35,2.54.74,4.59.05,5.88-.65,1.08-.6,2.45-1.67,3.3-3.51l20.11-124.79c-1.62-2.51-4.63-3.95-7.77-3.43-.25.04-.49.08-.74.12l-126.1,17.98c-16.31,2.32-31.42-9.01-33.74-25.32-2.33-16.31,9.01-31.42,25.32-33.74l125.78-17.94c17.6-2.85,35.29,1.27,49.84,11.63,14.67,10.44,24.39,25.96,27.38,43.71.54,3.21.55,6.49.03,9.7l-21.61,134.07c-.19,1.21-.46,2.4-.8,3.58-5.02,17.28-16.48,31.57-32.26,40.24-15.78,8.67-33.98,10.68-51.26,5.66-21.52-6.25-38.47-22.74-45.35-44.1-1.41-4.36-1.79-8.99-1.11-13.53l5.1-34.27-16.36,2.22c5.07,45.24,13.81,127.85,13.49,156.61-.46,40.52-20.72,106.12-23.03,113.47-4,12.74-15.77,20.89-28.45,20.9Z"/><path class="cls-3" d="m796.82,1549.17h-34.89c-16.47,0-29.83-13.36-29.83-29.83s13.36-29.83,29.83-29.83h34.89c16.47,0,29.83,13.36,29.83,29.83s-13.36,29.83-29.83,29.83Z"/><path class="cls-3" d="m793.6,1551.48h-34.89c-16.47,0-29.83-13.36-29.83-29.83s13.36-29.83,29.83-29.83h34.89c16.47,0,29.83,13.36,29.83,29.83s-13.36,29.83-29.83,29.83Z"/><path class="cls-3" d="m1065.65,1323.55c-4.52,0-9.11-1.03-13.42-3.21-17.96-9.06-38.08-13.58-58.19-13.05-16.5.44-30.17-12.57-30.6-29.04-.43-16.47,12.57-30.17,29.04-30.6,29.92-.78,59.89,5.94,86.62,19.43,14.71,7.42,20.61,25.36,13.19,40.07-5.25,10.4-15.75,16.4-26.65,16.4Z"/><circle class="cls-3" cx="548.01" cy="1422.96" r="38.19"/><circle class="cls-3" cx="1008.1" cy="1422.96" r="38.19"/><path class="cls-3" d="m280.6,1322.62c-13.96,0-26.43-9.85-29.23-24.06-20.24-102.58-16.56-212.21,10.64-317.02,27.26-105.07,76.77-199.92,143.16-274.31,10.97-12.29,29.83-13.36,42.12-2.39,12.29,10.97,13.36,29.83,2.39,42.12-122.55,137.29-177.41,349.27-139.78,540.04,3.19,16.16-7.33,31.85-23.49,35.04-1.95.38-3.89.57-5.81.57Z"/><path class="cls-3" d="m1267.49,1298.98c-2.2,0-4.43-.24-6.67-.76-16.06-3.67-26.11-19.66-22.44-35.72,15.78-69.07,18.85-143.9,8.89-216.39-9.95-72.4-32.91-142.52-66.39-202.77-33.33-59.98-78.92-113.48-131.85-154.72-52.62-41-112.57-69.92-173.35-83.64-60.61-13.68-125.52-13.03-187.72,1.9-62.39,14.97-122.18,44.31-172.92,84.87-12.87,10.29-31.64,8.19-41.93-4.68-10.29-12.87-8.19-31.64,4.68-41.93,57.54-45.99,125.41-79.28,196.26-96.28,71.04-17.04,145.3-17.76,214.77-2.08,69.29,15.64,137.37,48.41,196.88,94.77,59.2,46.12,110.15,105.87,147.34,172.8,37.04,66.65,62.4,143.98,73.34,223.63,10.93,79.55,7.53,161.78-9.83,237.8-3.16,13.83-15.45,23.19-29.06,23.19Z"/><path class="cls-3" d="m365.51,1564.02c-1.37,0-2.75-.09-4.14-.29-26.7-3.7-52.34-16.85-72.22-37.03-19.88-20.18-32.64-46.02-35.94-72.77-3.3-26.75,2.79-54.92,17.17-79.32,14.37-24.4,36.05-43.4,61.05-53.48l13.05-5.29c.53-11.42,1.16-21.53,1.9-33.25l.31-4.97c1.03-16.44,15.2-28.95,31.64-27.9,16.44,1.03,28.94,15.2,27.9,31.64l-.31,4.99c-1.13,18.01-1.96,31.02-2.55,50.79-.35,11.82-7.65,22.32-18.62,26.76l-30.97,12.55c-26.74,10.79-44.89,41.61-41.37,70.18,3.53,28.57,28.63,54.05,57.15,58.01,16.32,2.26,27.71,17.33,25.45,33.65-2.07,14.93-14.86,25.73-29.51,25.73Z"/><path class="cls-3" d="m923.6,1911.18c-10.89,0-21.38-5.98-26.64-16.37-7.44-14.7-1.55-32.65,13.15-40.09,57.86-29.28,110.5-77.91,152.22-140.63,38.61-58.03,66.08-126,77.37-191.4,2.2-12.74,4.03-25.92,5.44-39.18,1.74-16.38,16.44-28.24,32.82-26.51,16.38,1.74,28.25,16.43,26.51,32.82-1.55,14.54-3.55,29.02-5.97,43.02-12.67,73.4-43.38,149.51-86.49,214.3-47.42,71.28-107.92,126.88-174.95,160.81-4.32,2.19-8.92,3.22-13.45,3.22Z"/><path class="cls-3" d="m558.33,1869.31c-6.63,0-13.31-2.2-18.85-6.72-47.89-39.09-90.61-90.92-123.55-149.89-31.2-55.84-53.12-116.87-63.41-176.5-2.61-15.13-4.74-30.8-6.34-46.55-1.66-16.39,10.28-31.02,26.67-32.68,16.39-1.66,31.03,10.28,32.68,26.67,1.46,14.38,3.4,28.65,5.77,42.42,9.16,53.05,28.76,107.53,56.71,157.55,29.31,52.47,67.07,98.38,109.2,132.77,12.76,10.42,14.66,29.21,4.24,41.97-5.9,7.22-14.48,10.97-23.13,10.97Z"/><path class="cls-3" d="m135.25,2224.07c-5.16,0-10.38-1.34-15.15-4.15-29.26-17.29-50.81-47.62-59.1-83.21-8.3-35.58-2.39-72.31,16.21-100.76,11.12-17.01,25.14-30.03,38.69-42.62,15.38-14.29,28.66-26.63,34.09-41.38,6.16-16.72,2.52-37.08-1.68-60.66-2.27-12.7-4.61-25.83-5.53-39.48-6.02-89.6,60.59-177.43,148.49-195.79,16.13-3.37,31.93,6.97,35.3,23.1,3.37,16.13-6.97,31.93-23.1,35.3-58.87,12.3-105.2,73.38-101.16,133.39.7,10.38,2.66,21.37,4.73,33,5,28.06,10.68,59.86-1.06,91.75-10.36,28.14-31.14,47.45-49.48,64.48-11.43,10.62-22.23,20.65-29.36,31.56-9.73,14.88-12.66,34.77-8.05,54.57,4.62,19.8,16.04,36.34,31.35,45.39,14.18,8.38,18.89,26.67,10.51,40.86-5.57,9.42-15.51,14.66-25.71,14.66Z"/><path class="cls-3" d="m409.76,2153.04c-6.26,0-12.57-1.96-17.95-6.02-13.15-9.92-15.77-28.63-5.84-41.78,42.27-56.01,56.64-132.75,37.52-200.27-4.49-15.85,4.72-32.34,20.57-36.83,15.84-4.49,32.34,4.72,36.83,20.57,11.89,41.97,13.8,87.51,5.52,131.7-8.28,44.19-26.54,85.95-52.81,120.77-5.86,7.77-14.8,11.86-23.84,11.86Z"/><path class="cls-3" d="m443.31,1475.61c-2.41,0-4.85-.29-7.29-.91-15.98-4.01-25.68-20.22-21.66-36.2,8.25-32.83,20.21-59.7,36.57-82.15,28.87-39.61,73.14-68.78,139.31-91.8,15.93-5.54,32.09-10.48,47.71-15.26,32.44-9.91,63.08-19.28,91.36-33.48,88.84-44.62,149.45-141.39,150.8-240.8.22-16.33,13.54-29.42,29.82-29.42.14,0,.28,0,.42,0,16.47.22,29.65,13.76,29.42,30.23-.81,59.64-18.7,119.04-51.72,171.77-33.02,52.73-78.66,94.76-131.96,121.53-32.8,16.47-67.32,27.02-100.7,37.22-15.09,4.61-30.7,9.38-45.55,14.55-54.15,18.84-89.32,41.27-110.7,70.6-11.77,16.15-20.58,36.28-26.92,61.54-3.4,13.54-15.56,22.57-28.91,22.57Z"/><path class="cls-3" d="m1193.56,1564.02c-14.66,0-27.44-10.81-29.51-25.74-2.26-16.32,9.13-31.38,25.45-33.65,28.52-3.96,53.62-29.44,57.15-58.01,3.53-28.57-14.62-59.39-41.32-70.17l-31.02-12.57c-10.96-4.44-18.26-14.94-18.62-26.76-.45-15.06-4.25-39.04-8.35-55.71l-8.02-.14c-42.47,2.18-76.62-28.5-91.7-60.19-14.21-29.86-15.76-62.66-15.33-93.66.05-3.28.11-6.57.17-9.86.43-22.83.84-44.4-4.36-63.59-7.07-26.08-25.68-48.96-49.78-61.19-14.69-7.46-20.56-25.41-13.1-40.1,7.46-14.69,25.41-20.56,40.1-13.1,38.91,19.75,68.95,56.68,80.37,98.79,7.43,27.42,6.92,54.32,6.42,80.33-.06,3.19-.12,6.38-.16,9.56-.31,22.15.15,47.44,9.55,67.2,7.51,15.8,22.66,27.06,35.17,26.21.85-.06,1.69-.08,2.54-.06l30.13.52c11.08.19,21.14,6.5,26.12,16.4,9.15,18.15,15.5,52.14,18.3,76.99l13.91,5.64c24.95,10.07,46.63,29.06,61.01,53.46,14.37,24.4,20.47,52.57,17.17,79.32-3.3,26.75-16.07,52.59-35.94,72.77-19.87,20.17-45.52,33.32-72.22,37.03-1.39.19-2.77.29-4.14.29Z"/><path class="cls-3" d="m646.41,1307.25c-8.12,0-16.2-3.29-22.09-9.77-11.08-12.19-10.17-31.06,2.02-42.14,54.51-49.52,70.28-89.28,70.28-177.24,0-16.48,13.36-29.83,29.83-29.83s29.83,13.36,29.83,29.83c0,104.52-22.67,160.39-89.82,221.4-5.71,5.19-12.89,7.75-20.05,7.75Z"/><path class="cls-3" d="m456.52,1434.03c-4.77,0-9.61-1.15-14.1-3.57-14.51-7.8-19.95-25.89-12.14-40.4,5.93-11.03,11.28-21.99,16.95-33.59,5.67-11.61,11.53-23.62,18.02-35.68,7.77-14.44,15.59-26.65,23.16-38.45,22.42-34.98,40.13-62.6,40.13-129.25,0-16.48,13.36-29.83,29.83-29.83s29.83,13.36,29.83,29.83c0,84.13-25.19,123.44-49.56,161.45-6.96,10.86-14.16,22.09-20.84,34.51-5.93,11.03-11.28,21.99-16.95,33.59-5.67,11.61-11.53,23.62-18.02,35.68-5.39,10.01-15.67,15.71-26.3,15.71Z"/><path class="cls-3" d="m779.03,2566.83c-7.62,0-15.23-2.9-21.05-8.69l-27.49-27.37c-11.67-11.63-11.71-30.51-.09-42.19,11.63-11.67,30.52-11.71,42.19-.09l6.44,6.41,241.48-240.42c11.67-11.62,30.56-11.58,42.19.09,11.62,11.67,11.58,30.56-.09,42.19l-262.53,261.38c-5.82,5.79-13.43,8.69-21.05,8.69Z"/><path class="cls-3" d="m411.43,2515.71c-16.48,0-29.83-13.36-29.83-29.83v-267.17c0-16.48,13.36-29.83,29.83-29.83s29.83,13.36,29.83,29.83v267.17c0,16.47-13.36,29.83-29.83,29.83Z"/><path class="cls-3" d="m1150.34,3145.73c-16.47,0-29.83-13.36-29.83-29.83v-897.2c0-16.48,13.36-29.83,29.83-29.83s29.83,13.36,29.83,29.83v897.2c0,16.47-13.36,29.83-29.83,29.83Z"/><path class="cls-3" d="m1149.5,2783.43c-16.47,0-29.83-13.36-29.83-29.83v-535.45c0-16.47,13.36-29.83,29.83-29.83s29.83,13.36,29.83,29.83v535.45c0,16.47-13.36,29.83-29.83,29.83Z"/><ellipse class="cls-1" cx="1575.88" cy="611.22" rx="65.88" ry="39.05"/><ellipse class="cls-1" cx="1444.93" cy="762.17" rx="65.88" ry="39.05"/><path class="cls-1" d="m1763.78,446.77c8.74,0,17.44,3.42,23.94,10.12,16.07,16.56,37.6,25.68,60.62,25.68,46.58,0,84.48-37.9,84.48-84.48,0-8.93-1.4-17.75-4.17-26.24-3.93-12.03-.71-25.24,8.31-34.11,24.34-23.96,37.74-55.93,37.74-90.04,0-69.67-56.68-126.36-126.35-126.36-12.01,0-23.98,1.72-35.56,5.11-8.92,2.61-18.52,1.38-26.49-3.39-7.97-4.77-13.59-12.66-15.5-21.75-8.1-38.57-42.65-66.57-82.14-66.57-46.29,0-83.95,37.66-83.95,83.95,0,1.44.04,2.94.12,4.45.78,15.03-8.61,28.72-22.91,33.41-37.39,12.25-62.5,46.92-62.5,86.28,0,28.44,12.98,54.72,35.62,72.08,9.9,7.6,14.73,20.09,12.52,32.37-1.19,6.61-1.8,13.23-1.8,19.69,0,60.67,49.36,110.03,110.04,110.03,24.7,0,48.05-8.02,67.53-23.2,6.06-4.72,13.29-7.04,20.48-7.04Z"/><path class="cls-3" d="m1837.2,520.17c-28.28,0-55.14-8.61-77.71-24.6-23.21,12.91-49.18,19.65-76.27,19.65-86.94,0-157.67-70.73-157.67-157.68,0-3.59.13-7.21.38-10.84-26.71-26.28-41.73-61.84-41.73-99.93,0-53.64,30.16-101.67,76.89-125.31,7.27-67.29,64.42-119.85,133.62-119.85,31.02,0,61.3,10.83,85.24,30.49,15.86,13.03,28.49,29.53,36.96,47.98,6.73-.8,13.5-1.2,20.29-1.2,94.97,0,172.24,77.27,172.24,172.24,0,40.62-13.94,79.02-39.57,109.84,1.47,8.01,2.21,16.15,2.21,24.34,0,74.37-60.5,134.88-134.88,134.88Zm-75.44-91.44c7.8,0,15.56,3.05,21.36,9.03,14.34,14.78,33.54,22.91,54.09,22.91,41.56,0,75.38-33.82,75.38-75.38,0-7.96-1.25-15.84-3.72-23.41-3.5-10.73-.63-22.52,7.41-30.43,21.71-21.37,33.67-49.9,33.67-80.34,0-62.17-50.58-112.74-112.74-112.74-10.72,0-21.4,1.53-31.73,4.56-7.95,2.33-16.52,1.23-23.64-3.03-7.11-4.26-12.13-11.29-13.83-19.41-7.23-34.42-38.05-59.39-73.29-59.39-41.3,0-74.9,33.6-74.9,74.9,0,1.29.04,2.62.11,3.97.7,13.41-7.68,25.63-20.44,29.81-33.36,10.93-55.77,41.87-55.77,76.98,0,25.38,11.58,48.82,31.78,64.32,8.83,6.78,13.14,17.92,11.17,28.88-1.06,5.9-1.6,11.81-1.6,17.57,0,54.14,44.04,98.18,98.18,98.18,22.04,0,42.87-7.16,60.26-20.7,5.41-4.21,11.86-6.28,18.27-6.28Z"/><path class="cls-3" d="m1837.04,518.56c-28.28,0-55.14-8.61-77.71-24.6-23.21,12.91-49.18,19.65-76.27,19.65-86.94,0-157.67-70.73-157.67-157.67,0-3.59.13-7.21.38-10.84-26.71-26.28-41.73-61.84-41.73-99.93,0-53.64,30.16-101.67,76.89-125.31,7.27-67.29,64.42-119.85,133.62-119.85,31.02,0,61.3,10.83,85.24,30.49,15.86,13.03,28.49,29.53,36.96,47.98,6.73-.8,13.5-1.2,20.29-1.2,94.97,0,172.24,77.27,172.24,172.24,0,40.62-13.94,79.02-39.57,109.84,1.47,8.01,2.21,16.15,2.21,24.34,0,74.37-60.5,134.88-134.88,134.88Zm-75.45-91.44c7.8,0,15.56,3.05,21.36,9.03,14.34,14.78,33.54,22.91,54.09,22.91,41.56,0,75.38-33.82,75.38-75.38,0-7.96-1.25-15.84-3.72-23.41-3.5-10.73-.63-22.52,7.41-30.43,21.71-21.37,33.67-49.9,33.67-80.34,0-62.17-50.57-112.74-112.74-112.74-10.72,0-21.4,1.53-31.73,4.56-7.96,2.33-16.53,1.23-23.64-3.03-7.11-4.26-12.13-11.29-13.83-19.41-7.23-34.41-38.05-59.39-73.29-59.39-41.3,0-74.9,33.6-74.9,74.9,0,1.27.04,2.61.11,3.99.69,13.41-7.69,25.61-20.45,29.8-33.36,10.93-55.77,41.87-55.77,76.98,0,25.38,11.58,48.82,31.78,64.31,8.83,6.78,13.14,17.92,11.17,28.88-1.06,5.9-1.6,11.81-1.6,17.57,0,54.14,44.04,98.18,98.18,98.18,22.04,0,42.87-7.16,60.26-20.7,5.41-4.21,11.86-6.28,18.27-6.28Z"/><path class="cls-3" d="m1445.81,833.33c-49.3,0-87.92-30.95-87.92-70.45s38.62-70.45,87.92-70.45,87.93,30.95,87.93,70.45-38.62,70.45-87.93,70.45Zm-28.4-70.45c1,2.83,10.82,10.95,28.4,10.95s27.39-8.12,28.4-10.95c-1-2.83-10.82-10.95-28.4-10.95s-27.39,8.12-28.4,10.95Zm56.84.15h0,0Z"/><path class="cls-3" d="m1572.13,685.94c-54.89,0-97.9-34.01-97.9-77.43s43-77.43,97.9-77.43,97.9,34.01,97.9,77.43-43,77.43-97.9,77.43Zm0-95.36c-23.45,0-38.4,11.77-38.4,17.93s14.95,17.93,38.4,17.93,38.4-11.77,38.4-17.93-14.95-17.93-38.4-17.93Z"/></g></g></svg>