<?xml version="1.0" encoding="UTF-8"?><svg id="_レイヤー_2" xmlns="http://www.w3.org/2000/svg" width="1942.04" height="3057.81" viewBox="0 0 1942.04 3057.81"><defs><style>.cls-1{fill:#fff;}.cls-2{fill:#f17d00;}.cls-3{fill:#38261f;}</style></defs><g id="_layer"><g id="group"><path class="cls-1" d="m1306.23,1200.99c29.06,11.74,48.83,45.31,44.99,76.42-3.59,29.06-27.71,55.18-56.17,62.02.92-6.63,1.73-13.32,2.44-20.02,1.43-13.26-8.19-25.15-21.47-26.58-13.26-1.43-25.18,8.22-26.58,21.47-1.43,13.44-3.29,26.79-5.5,39.67-14.96,86.69-56.96,175.1-115.2,242.6-21.47,24.88-49.87,52.4-85.17,75.5-39.79,26.1-88.34,46.55-145.6,51.32-13.3,1.1-23.17,12.77-22.07,26.07,1.04,12.63,11.6,22.16,24.05,22.16.67,0,1.33-.02,2.03-.07,42.04-3.5,81.6-14.54,118.19-31.48-2.72,22.62-2.88,49.98-.64,82.8.23,3.34.39,6.72.55,10.17h-287.86c.16-2.85.35-6.01.64-10.17,5.45-79.88-7.13-117.09-18.69-134.21-5.06-7.53-13.32-14.11-15.74-15.92-.35-.25-.69-.51-1.06-.76-96.97-65.79-173.63-189.32-195.26-314.65-2.39-13.95-4.37-28.4-5.85-42.94-1.33-13.28-13.21-22.94-26.46-21.61-13.28,1.36-22.94,13.21-21.61,26.49.6,5.8,1.24,11.6,1.98,17.35-24.46-9.62-44.07-33.23-47.27-59.21-3.82-31.11,15.95-64.69,45.04-76.42l31.07-12.59c8.88-3.59,14.8-12.1,15.07-21.68.07-2.28.14-4.49.21-6.63,15.67-11.62,27.94-28.51,35.88-49.36,13.39-35.32,11.3-70.88,9.25-105.28-2.35-39.54-4.35-73.66,16.25-103,6.56-9.34-10.6-34.08-17.92-42.27,20.25-22.81,52.08-44.25,77-59l78.67-46.03c10.08,5.48,29.57,23.22,36.98,13.95,24.05-30.08,75.69-46.28,127.9-19.05,59.07,30.79,83.51,108.02,91.29,139.8,7.25,29.57,11.74,63.1,14.11,105.53.74,12.86,11.39,22.81,24.12,22.81.46,0,.92-.02,1.38-.05,9.34-.53,18.42-31.45,21.97-39.45,30.08,11.74,61.43,20.45,94,22.77,3.64,4.92,9.06,29.01,15.58,30.1,1.31.21,2.62.32,3.91.32,6.83,0,14.95-23.54,19.44-28.35,31.69,1.82,69.99,8.35,95.65,21.95,4.46,2.37-1.02,22.05,2.69,24.86,2.55,4.72,32.69,6.11,37.89,8.27,7.64,8.4,4.97,17.07,7.87,26.09-8.1,4.3-31.61,16.15-31.01,25.91l.32,5.04c1.1,17.42,1.96,31.18,2.55,51.09.3,9.57,6.21,18.09,15.07,21.68l31.11,12.59Z"/><path class="cls-2" d="m1100.43,1007.75c-30.7-2.39-61.1-6.72-88.67-18.06-2.58-44.09-7.46-79.53-15.23-111.33-11.6-47.41-42.07-132.67-115.89-171.17-30.31-15.81-65.26-22.09-98.42-17.65-36.18,4.81-67.98,22.34-89.56,49.36-6.14,7.69-6.83,17.97-2.6,26.19l-70.19,41.51c-26.49,15.69-56.13,33.21-77.9,58.59-9.48-2.49-19.91,1.01-25.87,9.48-30.28,43.15-27.43,91.22-24.92,133.63,1.73,28.93,3.34,56.36-4.65,80.87-7.64,27.29-39.4,43.84-39.9,54.29-.09,1.98-.18,3.98-.28,6.03l-16.52,6.7c-4.03,1.63-7.96,3.5-11.76,5.59l-6.33-21.01c7.02-6.14,10.1-16.09,7.06-25.54-5.13-15.95-62.09-165.39-72.79-193.47-9.04-81.62,7.73-166.01,47.29-237.95,40.06-72.81,103.37-132.69,178.3-168.63,12.04-5.75,17.12-20.2,11.35-32.24-.46-.97-.97-1.86-1.54-2.74,3.27-6.7,5.68-13.65,8.05-20.44l12.38-35.51c5.13.14,10.33-1.38,14.77-4.65,95-69.77,228.65-90.67,366.68-57.35,129.4,31.25,236.8,104.71,280.31,191.74,4.23,8.47,12.77,13.37,21.63,13.37,2.19-.02,4.37-.3,6.54-.92,6.81,10.98,14.45,21.4,22.87,31.2-5.55,9.2-4.44,21.33,3.43,29.39,73.48,75.14,113.61,182.14,107.86,287.08-13.58,29.5-75.3,165.28-83.3,210.31-1.63,9.14,2.09,17.97,8.93,23.29l-8.81,18.04c-5.8-3.75-11.97-6.95-18.41-9.55l-16.55-6.72c-.58-12.96-1.27-23.93-2.07-36.89l-.32-5.02c-.76-11.99-10.08-21.38-21.7-22.55-2.55-8.42-6.65-16.34-11.74-23.52,7.09-2.6,12.86-8.47,15-16.29,12.84-46.99,12.5-96.51-1.04-143.25-3.7-12.82-17.12-20.2-29.92-16.5-12.84,3.7-20.2,17.12-16.5,29.94,11.05,38.18,11.32,78.63.83,117.04-1.24-.74-2.49-1.43-3.73-2.09-26.53-14.08-56.7-17.7-88.02-19.65,9.67-60.32,1.91-124.4-21.88-180.58-5.2-12.29-19.38-18.04-31.69-12.84-12.29,5.22-18.02,19.4-12.82,31.69,20.39,48.16,26.99,103.16,18.55,154.83-.21,1.33-.32,2.65-.32,3.96Z"/><path class="cls-2" d="m662.48,1857.22l423.44-.22,17.27,64.04,51.08,53.51,268.53,118.09s59.77,35.01,74.9,46.7c15.13,11.69,112.43,80.54,126,91.64,38.77,31.72,59.33,238.84,59.33,238.84,0,0,36.77,158.03,36.77,284.56s-49.9,271.83-49.9,271.83H77.7s-58.34-206.74-47.05-347.88c11.29-141.14,39.13-353.68,56.52-387.52,17.39-33.84,81.13-91.73,118.64-116.73,22.51-15.01,117.75-75.95,143.2-85.24,25.45-9.29,128.22-79.49,198.91-97.71,70.69-18.22,99.85-43,104.22-69.96,4.37-26.97,10.33-63.95,10.33-63.95Z"/><polygon class="cls-1" points="311.58 2671.26 347.25 2623.19 417.03 2519.29 463.55 2503.78 587.61 2598.38 776.8 2744.15 655.84 2798.42 483.71 2834.09 311.58 2671.26"/><path class="cls-1" d="m1043.42,2676.01s40.92,52.61,55.54,74.54c14.61,21.92,86.23,97.92,86.23,97.92,0,0,51.15,55.54,64.31,61.38,13.15,5.85,39.46-42.38,42.38-52.61,2.92-10.23,100.84-220.68,100.84-220.68,0,0-36.54-52.61-84.77-48.23-48.23,4.38-168.07,42.38-182.68,49.69-14.61,7.31-81.84,38-81.84,38Z"/><path class="cls-3" d="m811.93,1596.32c-8.66,0-17.25-3.74-23.17-10.97-10.46-12.79-8.58-31.63,4.2-42.1,46.31-37.9,116.98-38.95,164.39-2.44,13.09,10.08,15.53,28.86,5.45,41.96-10.08,13.09-28.86,15.53-41.96,5.45-25.1-19.33-65.47-18.73-89.99,1.34-5.56,4.55-12.27,6.77-18.93,6.77Z"/><path class="cls-3" d="m83.35,3057.81c-11.13,0-21.82-6.24-26.98-16.94-23.39-48.57-39.07-101.31-47.94-161.23-7.93-53.56-10.24-112.02-7.05-178.71,5.8-121.35,29.3-254.89,57.12-404.29,3.02-16.24,18.64-26.96,34.89-23.93,16.24,3.02,26.96,18.64,23.93,34.89-27.41,147.2-50.55,278.62-56.17,396.2-6.2,129.77,9.41,228.63,49.13,311.13,7.17,14.89.91,32.76-13.97,39.93-4.18,2.01-8.61,2.97-12.96,2.97Z"/><path class="cls-3" d="m1664.68,3057.81c-4.35,0-8.77-.95-12.96-2.97-14.89-7.17-21.14-25.05-13.97-39.93,39.72-82.49,55.34-181.36,49.13-311.13-5.62-117.58-28.76-249-56.17-396.2-3.02-16.24,7.69-31.86,23.93-34.89,16.25-3.02,31.86,7.69,34.89,23.93,27.82,149.4,51.32,282.94,57.12,404.29,3.19,66.69.88,125.15-7.05,178.71-8.87,59.92-24.55,112.66-47.94,161.23-5.15,10.7-15.84,16.94-26.98,16.94Z"/><path class="cls-3" d="m1085.84,3056.14c-10.04,0-19.84-5.05-25.49-14.22-8.67-14.07-4.3-32.5,9.77-41.17,53.97-33.27,106.51-69.87,156.17-108.77,13.01-10.19,31.81-7.91,42,5.1,10.19,13.01,7.91,31.81-5.1,42-51.41,40.28-105.81,78.16-161.67,112.6-4.89,3.02-10.32,4.45-15.67,4.45Z"/><path class="cls-3" d="m397.29,2883.15c-14.08,0-26.62-9.98-29.35-24.32-3.1-16.23,7.55-31.9,23.78-34.99,212.34-40.5,421.83-101.59,622.66-181.57,15.35-6.11,32.75,1.37,38.86,16.72,6.11,15.35-1.37,32.75-16.72,38.86-204.35,81.38-417.52,143.54-633.59,184.76-1.89.36-3.78.54-5.64.54Z"/><path class="cls-3" d="m371.84,2594.72c-12.31,0-23.84-7.65-28.19-19.92-26.63-75.04-57.77-149.32-92.54-220.79-7.23-14.86-1.05-32.76,13.81-39.99,14.86-7.23,32.76-1.05,39.99,13.81,35.75,73.46,67.75,149.82,95.13,226.95,5.53,15.57-2.62,32.67-18.19,38.2-3.31,1.17-6.69,1.73-10.01,1.73Z"/><path class="cls-3" d="m1098.33,2681.54c-10.69,0-21.03-5.74-26.42-15.83-7.78-14.57-2.28-32.7,12.3-40.48,52.73-28.16,118.37-63.2,189.84-63.39.18,0,.37,0,.56,0,40.61,0,80.5,11.69,112.39,32.94,13.75,9.16,17.46,27.74,8.3,41.49-9.16,13.75-27.74,17.47-41.49,8.3-22.16-14.77-50.28-22.9-79.2-22.9-.13,0-.27,0-.4,0-56.58.15-112.49,30-161.81,56.34-4.49,2.4-9.31,3.53-14.07,3.53Z"/><path class="cls-3" d="m1287.36,2883.15c-4.81,0-9.69-1.16-14.22-3.61-14.53-7.87-19.93-26.02-12.07-40.55,94.43-174.44,163.72-361.09,205.96-554.76,3.52-16.14,19.46-26.38,35.6-22.85,16.14,3.52,26.37,19.46,22.85,35.6-43.44,199.17-114.7,391.11-211.81,570.49-5.41,10-15.71,15.68-26.34,15.68Z"/><path class="cls-3" d="m1197.85,2884.31c-7.08,0-14.19-2.5-19.89-7.58-45.04-40.13-86.41-84.81-122.97-132.79-10.01-13.14-7.48-31.91,5.67-41.93,13.14-10.01,31.91-7.48,41.93,5.67,34.24,44.95,73,86.79,115.18,124.38,12.34,10.99,13.42,29.9,2.43,42.24-5.91,6.63-14.11,10.01-22.35,10.01Z"/><path class="cls-3" d="m491.73,2859.52c-6.37,0-12.79-2.03-18.23-6.22-90.28-69.53-162.13-125.73-165.38-128.28-14.83-11.42-24.34-27.93-26.79-46.5-2.46-18.63,2.48-37.09,13.9-51.99,11.42-14.9,27.98-24.46,46.6-26.92,18.62-2.46,37.09,2.48,51.99,13.9l222.86,170.88c13.11,10.05,15.59,28.83,5.54,41.94-10.05,13.11-28.83,15.59-41.94,5.54l-222.86-170.88c-4.59-3.52-11.19-2.65-14.71,1.94-2.29,2.99-2.28,6.14-2.07,7.75s1.02,4.66,4.01,6.95c.08.06.16.12.24.18.72.57,73.38,57.42,165.12,128.07,13.09,10.08,15.53,28.87,5.45,41.96-5.89,7.65-14.76,11.66-23.72,11.66Z"/><path class="cls-3" d="m693.1,2808.8c-6.35,0-12.75-2.01-18.18-6.18l-268.34-205.76c-2.99-2.29-6.14-2.28-7.75-2.07-1.61.21-4.66,1.02-6.95,4.01-3.52,4.59-2.65,11.19,1.94,14.71,13.11,10.05,15.59,28.83,5.54,41.94-10.05,13.11-28.83,15.59-41.94,5.54-14.9-11.42-24.46-27.97-26.92-46.6-2.46-18.63,2.48-37.09,13.9-51.99,11.42-14.9,27.98-24.46,46.6-26.92,18.62-2.46,37.09,2.48,51.99,13.9l268.34,205.76c13.11,10.05,15.59,28.83,5.54,41.94-5.89,7.68-14.78,11.71-23.76,11.71Z"/><path class="cls-3" d="m787.33,2779.23c-6.35,0-12.75-2.01-18.18-6.18l-313.41-240.31c-4.59-3.52-11.19-2.65-14.71,1.94-3.52,4.59-2.65,11.19,1.94,14.71,13.11,10.05,15.59,28.83,5.54,41.94-10.05,13.11-28.83,15.59-41.94,5.54-30.77-23.59-36.61-67.82-13.02-98.59,23.59-30.77,67.82-36.61,98.59-13.01l313.4,240.31c13.11,10.05,15.59,28.83,5.54,41.94-5.89,7.68-14.78,11.71-23.76,11.71Z"/><path class="cls-3" d="m473.19,1175.04c-10.39,0-20.48-5.42-26.01-15.08-8.19-14.35-3.21-32.62,11.14-40.81,8.89-5.08,16.44-14.88,21.27-27.6,9.29-24.48,7.61-52.85,5.83-82.88-2.57-43.36-5.48-92.5,25.96-137.28,9.49-13.52,28.15-16.79,41.67-7.29,13.52,9.49,16.79,28.15,7.29,41.67-19.45,27.69-17.48,60.9-15.2,99.36,2.07,35,4.22,71.19-9.62,107.65-9.88,26.04-26.32,46.21-47.54,58.33-4.68,2.67-9.78,3.94-14.81,3.94Z"/><path class="cls-3" d="m395.8,1152.54c-12.64,0-24.39-8.08-28.47-20.76-3.71-11.53-45.64-122.09-72.92-193.6-.88-2.3-1.47-4.7-1.76-7.15-11.08-93.63,7.84-190.68,53.28-273.29,45.44-82.61,117.28-150.55,202.29-191.32,14.9-7.14,32.77-.86,39.91,14.04,7.14,14.9.86,32.77-14.04,39.91-73.85,35.42-136.27,94.45-175.74,166.21-38.89,70.7-55.42,153.59-46.7,233.81,11.35,29.76,67.49,177.11,72.63,193.06,5.06,15.73-3.58,32.58-19.31,37.64-3.05.98-6.14,1.45-9.17,1.45Z"/><path class="cls-3" d="m1285.24,573.11c-10.97,0-21.54-6.06-26.78-16.54-20.97-41.93-57.89-81.69-106.79-114.97-48.79-33.21-107.48-58.71-169.72-73.74-63.97-15.45-129.71-19.19-190.11-10.84-65.63,9.08-123.44,31.69-171.83,67.22-13.32,9.78-32.04,6.91-41.82-6.41-9.78-13.32-6.91-32.04,6.41-41.82,56.49-41.47,123.45-67.8,199.04-78.26,67.74-9.37,141.17-5.24,212.35,11.95,69.18,16.7,134.66,45.21,189.35,82.44,57.32,39.02,101.11,86.63,126.64,137.68,7.39,14.78,1.4,32.75-13.38,40.14-4.29,2.15-8.86,3.16-13.36,3.17Z"/><path class="cls-3" d="m1366.45,1158.57c-1.74,0-3.5-.15-5.27-.47-16.27-2.89-27.11-18.43-24.22-34.69,8.04-45.22,68.78-179.14,83.28-210.71,5.33-102.98-34.17-207.91-106.28-281.65-11.55-11.81-11.34-30.75.47-42.31,11.81-11.55,30.75-11.34,42.31.47,85.09,87.01,131.03,211.46,122.88,332.89-.25,3.65-1.16,7.23-2.7,10.56-28.43,61.47-75.58,170.46-81.05,201.22-2.58,14.49-15.19,24.68-29.42,24.68Zm83.32-238.47h.01-.01Z"/><path class="cls-3" d="m586.6,1103.58c-10.93,0-21.47-6.02-26.73-16.44-7.44-14.75-1.52-32.74,13.23-40.19,26.81-13.53,56.85-20.27,86.87-19.49,16.52.43,29.56,14.17,29.13,30.68-.42,16.25-13.73,29.14-29.89,29.14-.26,0-.53,0-.79-.01-20.16-.52-40.35,4-58.36,13.09-4.32,2.18-8.92,3.21-13.45,3.21Z"/><path class="cls-3" d="m1163.44,1103.58c-4.53,0-9.13-1.03-13.46-3.21-18.01-9.09-38.2-13.62-58.36-13.09-16.51.41-30.25-12.61-30.68-29.13-.43-16.52,12.61-30.25,29.13-30.68,30.02-.78,60.06,5.96,86.87,19.49,14.75,7.44,20.67,25.44,13.23,40.19-5.26,10.43-15.8,16.44-26.73,16.44Z"/><circle class="cls-3" cx="644.31" cy="1251.41" r="38.29" transform="translate(-429.85 341.83) rotate(-22.5)"/><circle class="cls-3" cx="1105.73" cy="1251.41" r="38.3" transform="translate(-561.02 1148.4) rotate(-45)"/><path class="cls-3" d="m1617.4,2265.09c-7.26,0-14.54-2.62-20.29-7.94-117.99-108.97-436.2-248.81-439.4-250.21-.34-.15-.68-.31-1.02-.47-32.54-15.7-58.69-37.98-79.95-68.12-4.93-6.98-11.56-19.67-16.8-51.23h-370.55c-5.24,31.56-11.88,44.25-16.8,51.23-21.26,30.13-47.42,52.41-79.95,68.12-.34.16-.67.32-1.02.47-3.2,1.4-321.41,141.24-439.4,250.21-12.14,11.21-31.06,10.46-42.27-1.68-11.21-12.14-10.46-31.06,1.68-42.27,124.03-114.54,435.75-252.19,455.48-260.84,23.15-11.26,41.09-26.6,56.41-48.23.6-1.14,5.96-12.34,9.93-50.04,1.6-15.23,14.44-26.79,29.75-26.79h422.94c15.31,0,28.15,11.56,29.75,26.79,3.97,37.7,9.34,48.9,9.93,50.04,15.32,21.63,33.26,36.97,56.41,48.23,19.7,8.63,331.45,146.29,455.48,260.84,12.14,11.21,12.89,30.14,1.68,42.27-5.9,6.38-13.93,9.62-21.99,9.62Z"/><path class="cls-3" d="m987.79,1023.93c-15.75,0-28.95-12.31-29.84-28.23-2.37-42.07-6.8-75.27-13.95-104.49-7.37-30.12-18.56-57.96-32.36-80.51-15.72-25.69-34.57-44.38-56.01-55.56-20.51-10.7-44.05-14.96-66.27-12-15.76,2.1-38.01,8.93-54.47,29.54-10.32,12.91-29.14,15.01-42.05,4.69-12.91-10.32-15.01-29.14-4.69-42.05,22.52-28.18,55.66-46.46,93.3-51.49,34.33-4.58,70.5,1.9,101.85,18.25,31.2,16.27,57.9,42.3,79.37,77.37,16.99,27.75,30.63,61.48,39.45,97.53,8.04,32.87,12.99,69.52,15.57,115.35.93,16.5-11.69,30.62-28.19,31.55-.57.03-1.14.05-1.71.05Z"/><path class="cls-3" d="m1124.64,1037.61c-1.6,0-3.22-.13-4.85-.39-16.31-2.66-27.37-18.04-24.71-34.34,8.26-50.62,1.8-104.49-18.18-151.67-6.44-15.21.67-32.77,15.88-39.21,15.21-6.44,32.77.67,39.21,15.88,24.33,57.45,32.19,123.02,22.13,184.64-2.39,14.68-15.09,25.1-29.49,25.1Z"/><path class="cls-3" d="m1263.67,1068.76c-2.61,0-5.27-.34-7.91-1.07-15.94-4.36-25.32-20.81-20.97-36.75,10.08-36.85,9.79-77.31-.81-113.95-4.59-15.87,4.55-32.46,20.42-37.05,15.87-4.59,32.46,4.55,37.05,20.42,13.81,47.75,14.18,98.36,1.05,146.36-3.64,13.29-15.69,22.03-28.84,22.03Z"/><path class="cls-3" d="m1045.11,1886.92c-15.88,0-29.11-12.49-29.86-28.51-.23-4.88-.39-9.73-.55-14.42-.24-7.26-.47-14.12-.92-20.71-4.75-69.34,1.29-115.01,18.99-143.73,8.67-14.06,27.1-18.44,41.17-9.77,14.06,8.67,18.44,27.1,9.77,41.17-13.81,22.4-12.34,77.43-10.23,108.24.52,7.64.78,15.35,1.03,22.81.15,4.49.3,9.14.51,13.6.77,16.5-11.98,30.51-28.48,31.29-.48.02-.95.03-1.43.03Z"/><path class="cls-3" d="m461.86,1394.43c-1.37,0-2.75-.09-4.15-.29-26.77-3.71-52.5-16.9-72.43-37.13-19.93-20.23-32.73-46.15-36.04-72.98-3.31-26.83,2.8-55.08,17.22-79.55,14.41-24.47,36.16-43.52,61.22-53.63l31.02-12.57c15.31-6.21,32.76,1.18,38.96,16.49,6.2,15.31-1.18,32.76-16.49,38.96l-31.06,12.59c-26.82,10.82-45.02,41.73-41.48,70.38,3.54,28.65,28.71,54.21,57.31,58.18,16.37,2.27,27.79,17.38,25.52,33.74-2.08,14.97-14.9,25.81-29.59,25.81Z"/><path class="cls-3" d="m1292.27,1394.43c-14.7,0-27.52-10.84-29.59-25.81-2.27-16.37,9.16-31.47,25.52-33.74,28.6-3.97,53.77-29.52,57.31-58.18,3.54-28.66-14.67-59.56-41.44-70.37l-31.11-12.6c-10.99-4.45-18.31-14.98-18.67-26.83-.59-19.82-1.41-32.86-2.55-50.92l-.32-5.02c-1.03-16.49,11.49-30.7,27.98-31.73,16.48-1.03,30.7,11.49,31.73,27.98l.31,5c.74,11.75,1.38,21.88,1.91,33.33l13.13,5.32c25.02,10.1,46.77,29.14,61.18,53.62,14.41,24.47,20.53,52.72,17.22,79.55-3.31,26.83-16.11,52.74-36.04,72.98-19.93,20.23-45.65,33.42-72.43,37.13-1.39.19-2.78.29-4.15.29Z"/><path class="cls-3" d="m899.93,1777.39c-15.4,0-28.48-11.82-29.78-27.44-1.37-16.46,10.87-30.92,27.34-32.29,106.07-8.8,181.93-72.75,226.89-124.85,57.58-66.72,99.09-154.13,113.87-239.82,2.21-12.78,4.04-26,5.45-39.29,1.75-16.43,16.49-28.33,32.91-26.59,16.43,1.75,28.33,16.48,26.59,32.91-1.55,14.58-3.57,29.1-5.99,43.14-16.58,96.08-63.07,194.03-127.54,268.73-35.29,40.89-74.94,74.01-117.86,98.43-47.17,26.84-97.43,42.64-149.38,46.95-.84.07-1.68.1-2.51.1Z"/><path class="cls-3" d="m707.14,1880c-.52,0-1.04-.01-1.57-.04-16.5-.85-29.18-14.92-28.33-31.42.16-3.18.3-5.8.41-8.13.35-7.03.58-11.68,1.23-21.22,3.65-53.34-2.01-88.45-9.32-99.92-.68-.75-2.18-2.1-3.43-3.11-55.62-37.95-105.46-91.93-144.17-156.17-36.45-60.47-61.74-127.37-73.14-193.45-2.62-15.18-4.76-30.89-6.36-46.69-1.66-16.44,10.31-31.11,26.75-32.78,16.44-1.66,31.11,10.31,32.78,26.75,1.46,14.42,3.41,28.73,5.79,42.54,10.15,58.84,32.78,118.57,65.43,172.74,34.48,57.21,78.53,104.98,127.39,138.13.44.3.87.61,1.29.93,3.32,2.52,11.64,9.26,17.05,17.29,21.81,32.4,22.72,92.84,19.64,137.83-.62,8.99-.82,13.17-1.17,20.11-.12,2.36-.25,5.02-.42,8.25-.83,15.97-14.04,28.37-29.85,28.37Z"/><path class="cls-3" d="m890.03,1380.45h-34.99c-16.52,0-29.92-13.39-29.92-29.92s13.39-29.92,29.92-29.92h34.99c16.52,0,29.92,13.39,29.92,29.92s-13.39,29.92-29.92,29.92Z"/><path class="cls-3" d="m1536.79,577.96c-5.87,0-11.88-.53-17.99-1.61-16.18-2.86-26.98-18.29-24.13-34.46,2.85-16.18,18.29-26.98,34.46-24.13,7.61,1.34,18.01,1.51,24.27-5.34,6.44-7.03,10.74-24.09,3.52-50.88-2.81-10.44.26-21.58,8.02-29.1,7.76-7.52,19-10.24,29.34-7.1,40.81,12.39,76.08,11.62,92.02-2.01,4.22-3.6,7.17-8.51,8.85-14.67-25.49-.04-48.59-6.32-67.03-18.25-51.68-33.44-46.32-68.28-41.62-81.71,9.33-26.65,39.79-42.89,74.09-39.48,22.27,2.21,43.49,12.53,59.74,29.06,10.65,10.83,19.01,23.88,25.03,39.04,24.13-11.76,39.65-29.86,41.56-48.53.28-2.74.5-5.43.66-8.07-3.71-.06-7.48-.18-11.29-.4-27.39-1.53-49.73-7.21-66.39-16.87-64.43-37.37-57.41-75.96-51.4-90.81,12.71-31.42,54.94-47.01,98.23-36.27,34.1,8.46,68.13,33.7,82.96,80.26,18.42-5.39,34.13-18.75,39.9-34.69,6.81-18.82.18-37.52-6.57-49.89-9.77-17.89-26.24-34.62-45.2-45.91-36.06-21.47-78.84-30.4-120.48-25.16-16.3,2.05-31.18-9.5-33.23-25.8-2.05-16.3,9.5-31.18,25.8-33.23,54.73-6.9,110.96,4.85,158.35,33.06,56.32,33.53,100.95,101.71,77.29,167.16-13.41,37.07-47.45,65.29-88.2,73.86-.16,6.06-.56,12.33-1.23,18.82-4.11,40.19-31.69,75.33-75.65,96.42-4.63,2.22-9.36,4.24-14.16,6.05-.68,36.65-16.67,58.69-31.34,71.23-17.43,14.9-40.59,23.23-68.83,24.75-11.45.62-23.46.11-35.96-1.52-.79,24.24-8.51,45.1-22.9,60.81-15.13,16.53-36.57,25.37-60.51,25.37Zm109.32-249.16c2.62,2.92,7.1,6.96,14.35,11.65,6.5,4.21,14.82,6.86,24.13,8-5.48-8.7-12.61-14.83-21.13-18-6.96-2.58-13.21-2.5-17.35-1.65Zm70.71-134.39c3.13,3.73,9.67,9.87,22.95,17.57,8.08,4.69,21.17,7.67,37.19,8.8-5.82-10.29-13.91-18.05-24.14-22.94-14.49-6.93-28.79-5.93-36-3.42Z"/></g></g></svg>