<?xml version="1.0" encoding="UTF-8"?><svg id="_レイヤー_2" xmlns="http://www.w3.org/2000/svg" width="200" height="30.05" viewBox="0 0 200 30.05"><defs><style>.cls-1{fill:#40372d;}.cls-2{fill:#2e6c35;}</style></defs><g id="_レイヤー_1-2"><path class="cls-1" d="m47.52,10.7h-2.03v1.94c1.29.45,2.46,1.47,2.62,2.26.14.68-.41,1.2-1.04,1.02-.41-.11-.63-.47-.59-.88-.27-.47-.68-1.02-.99-1.38v10.97c0,.41-.34.74-.75.74s-.75-.34-.75-.74v-9.23c-.74,1.78-1.74,3.34-3.16,4.92-.32.34-.81-.07-.59-.45,1.72-2.78,3.05-6.28,3.68-9.17h-2.82c-.27,0-.47-.2-.47-.47s.2-.5.47-.5h2.85v-4.2c0-.41.38-.75.79-.75s.75.34.75.75v4.22h1.2c.05-.41.41-.74.84-.74.47,0,.86.36.86.84s-.38.86-.86.86Zm12.24-2.15h-4.2v1.9h2.03c.38-.65,1.4-.41,1.4.36v9.82c0,.83-1.17,1.04-1.45.25h-3.97c0,.43-.27.77-.72.77-.41,0-.72-.32-.72-.72v-10.12c0-.75.97-.99,1.35-.36h.61v-1.9h-4.88c-.27,0-.47-.2-.47-.47s.2-.5.47-.5h4.85v-1.94c0-.43.34-.77.77-.77s.77.34.77.77v1.96h3.32c.05-.45.43-.79.88-.79.47,0,.86.38.86.86s-.43.88-.9.88Zm.72,15.74h-9.87v.29c0,.43-.34.77-.77.77s-.77-.34-.77-.77v-11.79c0-.43.34-.79.77-.79s.77.36.77.79v10.59h9.01c.02-.45.38-.84.86-.84s.88.41.88.88-.41.86-.88.86Zm-6.91-10.75h3.93v-2.21h-3.93v2.21Zm0,3.18h3.93v-2.3h-3.93v2.3Zm0,3.27h3.93v-2.39h-3.93v2.39Z"/><path class="cls-1" d="m82.04,23.57c0,.43-.36.79-.79.79s-.83-.36-.83-.79v-.38h-13.01v.68c0,.43-.38.79-.81.79s-.79-.36-.79-.79V7.4c0-.84,1.11-1.06,1.49-.36h13.23c.38-.7,1.51-.47,1.51.36v16.17Zm-14.63-9.17h5.6v-6.43h-5.6v6.43Zm0,7.84h5.6v-6.91h-5.6v6.91Zm7.16-7.84h5.85v-6.43h-5.85v6.43Zm0,7.84h5.85v-6.91h-5.85v6.91Z"/><path class="cls-1" d="m106.86,12.86l-.7-.2c.27.72-.38,1.33-1.08,1.04-3.41-1.42-6.62-4.13-8.17-7.45-2.12,3.54-6.25,6.91-9.17,8.33-.43.2-.79-.34-.38-.63,3.07-2.33,6.37-5.92,8.33-9.12.16-.27.38-.43.68-.47.7-.14,1.26.5,1.08,1.22,1.74,2.96,5.58,5.49,9.6,6.57.2.05.32.25.27.45-.07.2-.25.32-.45.27Zm-2.28,4.61h-8.35c-.7,1.38-1.94,3.52-3.03,5.08,2.14-.16,6.12-.52,8.42-.77-.41-.59-1.4-1.94-1.81-2.44-.32-.38.09-.79.47-.56,2.82,1.72,4.36,3.73,4.56,5.15.11.81-.56,1.31-1.26,1.15-.52-.14-.86-.65-.74-1.17-.2-.45-.47-.97-.79-1.47-1.65.54-6.55,1.45-11.24,1.96-.34.41-.97.47-1.38.11-.41-.36-.47-.97-.11-1.38.16-.2.38-.32.61-.34.61-.07,1.74-.14,2.28-.18.61-1.42,1.51-3.88,1.87-5.15h-5.44c-.27,0-.5-.23-.5-.5,0-.29.23-.52.5-.52h14.99c.04-.47.45-.86.95-.86s.93.43.93.95c0,.45-.41.93-.93.93Zm-4.81-3.88h-7.29c-.27,0-.5-.23-.5-.5s.23-.5.5-.5h6.44c.07-.45.43-.79.9-.79s.88.38.88.88-.43.9-.93.9Z"/><path class="cls-1" d="m119.71,10h-9.42c-.27,0-.47-.23-.47-.5s.2-.47.47-.47h8.6c.07-.38.41-.65.81-.65.45,0,.81.36.81.81s-.36.81-.81.81Zm-1.99-2.89h-6.1c-.27,0-.47-.2-.47-.47s.2-.5.47-.5h5.28c.07-.38.41-.68.81-.68.45,0,.81.38.81.83s-.36.81-.81.81Zm0,5.78h-5.96c-.27,0-.47-.2-.47-.47s.2-.47.47-.47h5.22c.07-.34.38-.59.75-.59.43,0,.77.34.77.77s-.34.77-.77.77Zm.23,2.82h-6.07c-.27,0-.47-.2-.47-.47s.2-.47.47-.47h5.28c.07-.34.41-.59.77-.59.43,0,.77.34.77.77,0,.41-.34.77-.74.77Zm.9,8.42c0,.45-.36.81-.81.81s-.79-.36-.79-.81v-.32h-4.18v.86c0,.45-.34.79-.79.79s-.81-.34-.81-.79v-6.37c0-.84.99-1.08,1.45-.5h4.49c.45-.59,1.45-.34,1.45.5v5.82Zm-5.78-1.22h4.18v-4.2h-4.18v4.2Zm16.91-9.78h-3.91v11.49c0,.45-.36.81-.81.81s-.84-.36-.84-.81v-11.49h-4.06c-.27,0-.5-.23-.5-.5s.23-.52.5-.52h4.06v-6.39c0-.45.38-.83.84-.83s.81.38.81.83v6.44h3.03c.05-.47.43-.84.9-.84s.9.41.9.9c0,.56-.38.9-.93.9Z"/><path class="cls-1" d="m152.79,18.53h-2.44v3c0,.43-.34.77-.77.77s-.77-.34-.77-.77v-.16h-4.65v3.39c0,.54-.34,1.04-.99,1.04-.7,0-1.15-.72-.9-1.35h-.93c-.2,0-.36-.16-.36-.36s.16-.38.36-.38h1.26v-2.33h-6.86c-.27,0-.47-.2-.47-.47s.2-.5.47-.5h6.86v-1.87h-9.37c-.27,0-.47-.2-.47-.47s.2-.52.47-.52h9.37v-1.83h-6.86c-.27,0-.47-.2-.47-.47s.2-.5.47-.5h6.86v-1.67h-4.4c-.05.38-.36.68-.77.68-.43,0-.77-.32-.77-.74v-3.12c0-.72.88-1.04,1.33-.52h4.58v-1.33h-8.44c-.27,0-.47-.2-.47-.47s.2-.5.47-.5h8.42v-1.63c0-.43.38-.79.81-.79s.81.36.81.79v1.65h6.55c0-.52.41-.95.93-.95s.95.43.95.95-.43.95-.95.95h-7.5v1.33h4.65c.45-.52,1.33-.23,1.33.5v2.98c0,.88-1.24,1.06-1.49.23h-4.49v1.69h4.88c.47-.47,1.31-.14,1.31.54v2.28h1.58c.02-.47.41-.86.88-.86s.9.41.9.9-.43.9-.93.9Zm-14.59-6.39h4.4v-1.85h-4.4v1.85Zm5.96,0h4.45v-1.85h-4.45v1.85Zm0,5.44h4.65v-1.87h-4.65v1.87Zm0,2.84h4.65v-1.9h-4.65v1.9Z"/><path class="cls-1" d="m166.11,13.52l-1.56,1.2c-.29.23-.72-.11-.54-.45l.77-1.49h-2.21v11.24c0,.52-.41.95-.93.95-.68,0-1.11-.7-.86-1.31h-.72c-.2,0-.38-.16-.38-.36s.18-.36.38-.36h1.02v-6.93c-1.2,2.62-2.64,4.67-4.27,6.03-.34.27-.79-.14-.52-.5,1.63-2.21,3.36-5.58,4.47-8.76h-4.13c-.27,0-.47-.2-.47-.47s.2-.47.47-.47h8.72c.47-.45,1.24-.34,1.56.25.34.65-.09,1.4-.79,1.45Zm-1.69-5.53l-1.99,1.67c.34.27.54.52.63.88.11.5-.2.99-.7,1.11-.54.11-1.08-.27-1.13-.84-.41-.52-1.51-1.6-1.99-1.99-.29-.25-.05-.72.34-.61.77.25,1.67.65,2.26,1.02l1.17-1.94h-5.28c-.27,0-.47-.2-.47-.47s.2-.47.47-.47h5.87c.47-.52,1.33-.43,1.65.23.32.63-.14,1.38-.84,1.42Zm6.84,17.32c-.72.02-1.2-.72-.81-1.35l-.63-.02c-.2,0-.36-.2-.34-.41.02-.2.18-.34.38-.32l2.08.14c.59-.79.81-2.57,1.04-4.45h-3.21c-1.2,3.91-3.18,5.64-5.94,6.44-.38.11-.63-.47-.25-.68,1.99-1.04,3.64-2.91,4.56-5.76h-3.88c-.27,0-.47-.2-.47-.47s.2-.47.47-.47h4.15c.14-.54.25-1.15.29-1.78.05-.47.43-.84.9-.84.81,0,1.17.99.61,1.54-.07.38-.11.74-.2,1.08h3.18c.47-.61,1.47-.23,1.35.56-.63,4.85-.97,6.75-3.3,6.8Zm5.19-10.07c-.18-.05-.36-.07-.54-.11.18.68-.47,1.26-1.17.95-1.42-.63-2.82-1.58-3.91-2.66-1.4,1.42-3.34,2.8-5.87,3.5-.43.11-.65-.5-.23-.68,2.14-.9,3.86-2.48,5.1-3.95-.72-.97-1.26-2.03-1.54-2.87-.41.68-.95,1.45-1.29,1.9-.23.29-.81.07-.63-.36.65-1.6,1.51-3.97,1.87-5.26.11-.41.52-.7.95-.7.54,0,.97.43.97.97,0,.41-.25.72-.59.88-.18.5-.43,1.04-.7,1.54h5.53c0-.5.38-.9.88-.9s.9.41.9.9-.41.9-.9.9h-1.56c-.45.97-1.2,2.12-2.01,3.12,1.29.97,2.89,1.74,4.85,2.12.2.04.34.23.29.43s-.23.34-.43.29Zm-7.36-5.96c.34.65.88,1.47,1.54,2.15.43-.59.95-1.42,1.35-2.15h-2.89Z"/><path class="cls-1" d="m188.24,17.06c0,.9-1.29,1.06-1.51.2h-4.06c0,3.3-.86,5.89-2.6,7.83-.27.29-.86.05-.63-.36,1.29-2.44,1.67-4.61,1.67-8.42v-5.37c0-.86,1.17-1.13,1.58-.36h4.18c.45-.56,1.38-.27,1.38.47v6.01Zm-.09-9.73h-7.86c-.27,0-.5-.23-.5-.5s.23-.52.5-.52h7.04c.07-.41.43-.75.86-.75.47,0,.83.38.83.86s-.45.9-.88.9Zm-5.44,8.99h4v-4.79h-4v4.79Zm16.39-2.89h-2.55v11.38c0,.45-.34.79-.79.79s-.81-.34-.81-.79v-11.38h-3.18c-.18,5.64-1.65,8.62-5.87,11.13-.47.23-.74-.32-.45-.56,3.95-3.54,4.72-6.12,4.72-13.5v-2.75c0-.93,1.22-1.2,1.63-.36,1.63-.38,3.61-.97,4.94-1.4.2-.47.88-.61,1.29-.36.45.27.61.83.34,1.29-.18.29-.5.45-.84.5-1.22.2-3.77.52-5.73.7v4.38h6.41c.02-.47.43-.84.9-.84s.9.38.9.88-.41.9-.9.9Z"/><path class="cls-2" d="m13.12,16.56C14.03,14.73,21.89,6.15.36,1.82c2.09,1.46-6.08,12.29,9.13,16.26,5.03,1.63,4.22,8.65,4.45,9.36s1.65,5.52,2.92,0-1.2-6.68,4.15-9.13c3.63-1.66,13.67-2.2,16.34-17.2-5.08-2.94-21.6-.6-21.19,14.29-.24,2.09-.36,3.87-1.53,3.38-1.4-.58-1.52-2.22-1.52-2.22Z"/></g></svg>