<?xml version="1.0" encoding="UTF-8"?><svg id="_レイヤー_2" xmlns="http://www.w3.org/2000/svg" width="193.05" height="29" viewBox="0 0 193.05 29"><defs><style>.cls-1{fill:#40372d;}.cls-2{fill:#2e6c35;}</style></defs><g id="_レイヤー_1-2"><path class="cls-1" d="m45.87,10.32h-1.96v1.87c1.24.44,2.38,1.42,2.53,2.18.13.65-.39,1.15-1,.98-.39-.11-.61-.46-.57-.85-.26-.46-.65-.98-.96-1.33v10.59c0,.39-.33.72-.72.72s-.72-.33-.72-.72v-8.91c-.72,1.72-1.68,3.23-3.05,4.75-.31.33-.78-.07-.57-.44,1.66-2.68,2.94-6.06,3.55-8.85h-2.72c-.26,0-.46-.2-.46-.46s.2-.48.46-.48h2.75v-4.05c0-.39.37-.72.76-.72s.72.33.72.72v4.08h1.16c.04-.39.39-.72.81-.72.46,0,.83.35.83.81s-.37.83-.83.83Zm11.81-2.07h-4.05v1.83h1.96c.37-.63,1.35-.39,1.35.35v9.48c0,.81-1.13,1-1.39.24h-3.84c0,.41-.26.74-.7.74-.39,0-.7-.31-.7-.7v-9.76c0-.72.94-.96,1.31-.35h.59v-1.83h-4.71c-.26,0-.46-.2-.46-.46s.2-.48.46-.48h4.69v-1.87c0-.41.33-.74.74-.74s.74.33.74.74v1.9h3.2c.04-.44.41-.76.85-.76.46,0,.83.37.83.83s-.41.85-.87.85Zm.7,15.19h-9.52v.28c0,.41-.33.74-.74.74s-.74-.33-.74-.74v-11.38c0-.41.33-.76.74-.76s.74.35.74.76v10.22h8.7c.02-.44.37-.81.83-.81s.85.39.85.85-.39.83-.85.83Zm-6.67-10.37h3.79v-2.14h-3.79v2.14Zm0,3.07h3.79v-2.22h-3.79v2.22Zm0,3.16h3.79v-2.31h-3.79v2.31Z"/><path class="cls-1" d="m79.19,22.75c0,.41-.35.76-.76.76s-.81-.35-.81-.76v-.37h-12.55v.65c0,.41-.37.76-.78.76s-.76-.35-.76-.76V7.14c0-.81,1.07-1.02,1.44-.35h12.77c.37-.68,1.46-.46,1.46.35v15.6Zm-14.12-8.85h5.4v-6.21h-5.4v6.21Zm0,7.56h5.4v-6.67h-5.4v6.67Zm6.91-7.56h5.64v-6.21h-5.64v6.21Zm0,7.56h5.64v-6.67h-5.64v6.67Z"/><path class="cls-1" d="m103.14,12.42l-.68-.2c.26.7-.37,1.29-1.05,1-3.29-1.37-6.39-3.99-7.89-7.19-2.05,3.42-6.04,6.67-8.85,8.04-.41.2-.76-.33-.37-.61,2.96-2.24,6.15-5.71,8.04-8.8.15-.26.37-.41.65-.46.68-.13,1.22.48,1.05,1.18,1.68,2.86,5.38,5.3,9.26,6.34.2.04.31.24.26.44-.07.2-.24.31-.44.26Zm-2.2,4.45h-8.06c-.68,1.33-1.87,3.4-2.92,4.9,2.07-.15,5.91-.5,8.13-.74-.39-.57-1.35-1.87-1.74-2.35-.31-.37.09-.76.46-.54,2.72,1.66,4.21,3.6,4.4,4.97.11.78-.54,1.26-1.22,1.11-.5-.13-.83-.63-.72-1.13-.2-.44-.46-.94-.76-1.42-1.59.52-6.32,1.39-10.85,1.9-.33.39-.94.46-1.33.11-.39-.35-.46-.94-.11-1.33.15-.2.37-.31.59-.33.59-.07,1.68-.13,2.2-.17.59-1.37,1.46-3.75,1.81-4.97h-5.25c-.26,0-.48-.22-.48-.48,0-.28.22-.5.48-.5h14.47c.04-.46.44-.83.92-.83s.89.41.89.92c0,.44-.39.89-.89.89Zm-4.64-3.75h-7.04c-.26,0-.48-.22-.48-.48s.22-.48.48-.48h6.21c.07-.44.41-.76.87-.76s.85.37.85.85-.41.87-.89.87Z"/><path class="cls-1" d="m115.55,9.65h-9.09c-.26,0-.46-.22-.46-.48s.2-.46.46-.46h8.3c.07-.37.39-.63.78-.63.44,0,.78.35.78.78s-.35.78-.78.78Zm-1.92-2.79h-5.88c-.26,0-.46-.2-.46-.46s.2-.48.46-.48h5.1c.07-.37.39-.65.78-.65.44,0,.78.37.78.81s-.35.78-.78.78Zm0,5.58h-5.75c-.26,0-.46-.2-.46-.46s.2-.46.46-.46h5.03c.07-.33.37-.57.72-.57.41,0,.74.33.74.74s-.33.74-.74.74Zm.22,2.72h-5.86c-.26,0-.46-.2-.46-.46s.2-.46.46-.46h5.1c.07-.33.39-.57.74-.57.41,0,.74.33.74.74,0,.39-.33.74-.72.74Zm.87,8.13c0,.44-.35.78-.78.78s-.76-.35-.76-.78v-.31h-4.03v.83c0,.44-.33.76-.76.76s-.78-.33-.78-.76v-6.15c0-.81.96-1.05,1.39-.48h4.34c.44-.57,1.39-.33,1.39.48v5.62Zm-5.58-1.18h4.03v-4.05h-4.03v4.05Zm16.32-9.44h-3.77v11.09c0,.44-.35.78-.78.78s-.81-.35-.81-.78v-11.09h-3.92c-.26,0-.48-.22-.48-.48s.22-.5.48-.5h3.92v-6.17c0-.44.37-.81.81-.81s.78.37.78.81v6.21h2.92c.04-.46.41-.81.87-.81s.87.39.87.87c0,.54-.37.87-.89.87Z"/><path class="cls-1" d="m147.47,17.89h-2.35v2.9c0,.41-.33.74-.74.74s-.74-.33-.74-.74v-.15h-4.49v3.27c0,.52-.33,1-.96,1-.68,0-1.11-.7-.87-1.31h-.89c-.2,0-.35-.15-.35-.35s.15-.37.35-.37h1.22v-2.24h-6.63c-.26,0-.46-.2-.46-.46s.2-.48.46-.48h6.63v-1.81h-9.04c-.26,0-.46-.2-.46-.46s.2-.5.46-.5h9.04v-1.77h-6.63c-.26,0-.46-.2-.46-.46s.2-.48.46-.48h6.63v-1.61h-4.25c-.04.37-.35.65-.74.65-.41,0-.74-.31-.74-.72v-3.01c0-.7.85-1,1.29-.5h4.42v-1.29h-8.15c-.26,0-.46-.2-.46-.46s.2-.48.46-.48h8.13v-1.57c0-.41.37-.76.78-.76s.78.35.78.76v1.59h6.32c0-.5.39-.92.89-.92s.92.41.92.92-.41.92-.92.92h-7.24v1.29h4.49c.44-.5,1.29-.22,1.29.48v2.88c0,.85-1.2,1.02-1.44.22h-4.34v1.63h4.71c.46-.46,1.26-.13,1.26.52v2.2h1.53c.02-.46.39-.83.85-.83s.87.39.87.87-.41.87-.89.87Zm-14.08-6.17h4.25v-1.79h-4.25v1.79Zm5.75,0h4.29v-1.79h-4.29v1.79Zm0,5.25h4.49v-1.81h-4.49v1.81Zm0,2.75h4.49v-1.83h-4.49v1.83Z"/><path class="cls-1" d="m160.33,13.05l-1.5,1.16c-.28.22-.7-.11-.52-.44l.74-1.44h-2.14v10.85c0,.5-.39.92-.89.92-.65,0-1.07-.68-.83-1.26h-.7c-.2,0-.37-.15-.37-.35s.17-.35.37-.35h.98v-6.69c-1.15,2.53-2.55,4.51-4.12,5.82-.33.26-.76-.13-.5-.48,1.57-2.14,3.25-5.38,4.31-8.46h-3.99c-.26,0-.46-.2-.46-.46s.2-.46.46-.46h8.41c.46-.44,1.2-.33,1.5.24.33.63-.09,1.35-.76,1.39Zm-1.63-5.34l-1.92,1.61c.33.26.52.5.61.85.11.48-.2.96-.68,1.07-.52.11-1.05-.26-1.09-.81-.39-.5-1.46-1.55-1.92-1.92-.28-.24-.04-.7.33-.59.74.24,1.61.63,2.18.98l1.13-1.87h-5.1c-.26,0-.46-.2-.46-.46s.2-.46.46-.46h5.67c.46-.5,1.29-.41,1.59.22.31.61-.13,1.33-.81,1.37Zm6.6,16.72c-.7.02-1.16-.7-.78-1.31l-.61-.02c-.2,0-.35-.2-.33-.39.02-.2.17-.33.37-.31l2,.13c.57-.76.78-2.48,1-4.29h-3.09c-1.15,3.77-3.07,5.45-5.73,6.21-.37.11-.61-.46-.24-.65,1.92-1,3.51-2.81,4.4-5.56h-3.75c-.26,0-.46-.2-.46-.46s.2-.46.46-.46h4.01c.13-.52.24-1.11.28-1.72.04-.46.41-.81.87-.81.78,0,1.13.96.59,1.48-.07.37-.11.72-.2,1.05h3.07c.46-.59,1.42-.22,1.31.54-.61,4.69-.94,6.52-3.18,6.56Zm5.01-9.72c-.17-.04-.35-.07-.52-.11.17.65-.46,1.22-1.13.92-1.37-.61-2.72-1.53-3.77-2.57-1.35,1.37-3.23,2.7-5.67,3.38-.41.11-.63-.48-.22-.65,2.07-.87,3.73-2.4,4.93-3.81-.7-.94-1.22-1.96-1.48-2.77-.39.65-.92,1.39-1.24,1.83-.22.28-.78.07-.61-.35.63-1.55,1.46-3.84,1.81-5.08.11-.39.5-.68.92-.68.52,0,.94.41.94.94,0,.39-.24.7-.57.85-.17.48-.41,1-.68,1.48h5.34c0-.48.37-.87.85-.87s.87.39.87.87-.39.87-.87.87h-1.5c-.44.94-1.15,2.05-1.94,3.01,1.24.94,2.79,1.68,4.69,2.05.2.04.33.22.28.41s-.22.33-.41.28Zm-7.1-5.75c.33.63.85,1.42,1.48,2.07.41-.57.92-1.37,1.31-2.07h-2.79Z"/><path class="cls-1" d="m181.69,16.47c0,.87-1.24,1.02-1.46.2h-3.92c0,3.18-.83,5.69-2.51,7.56-.26.28-.83.04-.61-.35,1.24-2.35,1.61-4.45,1.61-8.13v-5.19c0-.83,1.13-1.09,1.53-.35h4.03c.44-.54,1.33-.26,1.33.46v5.8Zm-.09-9.39h-7.58c-.26,0-.48-.22-.48-.48s.22-.5.48-.5h6.8c.07-.39.41-.72.83-.72.46,0,.81.37.81.83s-.44.87-.85.87Zm-5.25,8.67h3.86v-4.62h-3.86v4.62Zm15.82-2.79h-2.46v10.98c0,.44-.33.76-.76.76s-.78-.33-.78-.76v-10.98h-3.07c-.17,5.45-1.59,8.33-5.67,10.74-.46.22-.72-.31-.44-.54,3.81-3.42,4.55-5.91,4.55-13.03v-2.66c0-.89,1.18-1.15,1.57-.35,1.57-.37,3.49-.94,4.77-1.35.2-.46.85-.59,1.24-.35.44.26.59.81.33,1.24-.17.28-.48.44-.81.48-1.18.2-3.64.5-5.54.68v4.23h6.19c.02-.46.41-.81.87-.81s.87.37.87.85-.39.87-.87.87Z"/><path class="cls-2" d="m12.66,15.98C13.54,14.22,21.13,5.93.35,1.75c2.01,1.41-5.87,11.86,8.81,15.69,4.86,1.58,4.07,8.35,4.29,9.03s1.59,5.33,2.82,0-1.15-6.45,4-8.81c3.51-1.61,13.2-2.12,15.77-16.6C31.15-1.77,15.21.49,15.6,14.85c-.23,2.02-.35,3.73-1.47,3.26-1.35-.56-1.47-2.14-1.47-2.14Z"/></g></svg>